<?xml version="1.0" encoding="utf-8"?>
<!-- Generator: Adobe Illustrator 22.0.1, SVG Export Plug-In . SVG Version: 6.00 Build 0)  -->
<svg version="1.1"
	 id="svg8" inkscape:version="0.92.1 r15371" sodipodi:docname="swords2.svg" xmlns:cc="http://creativecommons.org/ns#" xmlns:dc="http://purl.org/dc/elements/1.1/" xmlns:inkscape="http://www.inkscape.org/namespaces/inkscape" xmlns:rdf="http://www.w3.org/1999/02/22-rdf-syntax-ns#" xmlns:sodipodi="http://sodipodi.sourceforge.net/DTD/sodipodi-0.dtd" xmlns:svg="http://www.w3.org/2000/svg"
	 xmlns="http://www.w3.org/2000/svg" xmlns:xlink="http://www.w3.org/1999/xlink" x="0px" y="0px" viewBox="0 0 96.8 95"
	 style="enable-background:new 0 0 96.8 95;" xml:space="preserve">
<style type="text/css">
	.st0{fill:#080808;}
</style>
<sodipodi:namedview  bordercolor="#666666" borderopacity="1.0" id="base" inkscape:current-layer="layer1" inkscape:cx="449.13819" inkscape:cy="671.24186" inkscape:document-units="mm" inkscape:guide-bbox="true" inkscape:pageopacity="0.0" inkscape:pageshadow="2" inkscape:window-height="1018" inkscape:window-maximized="1" inkscape:window-width="1920" inkscape:window-x="-8" inkscape:window-y="-8" inkscape:zoom="2" pagecolor="#ffffff" showgrid="false" showguides="true">
	<sodipodi:guide  id="guide4500" inkscape:locked="false" orientation="0,1" position="93.218376,109.75484"></sodipodi:guide>
	<sodipodi:guide  id="guide4502" inkscape:locked="false" orientation="0,1" position="91.706855,106.55702"></sodipodi:guide>
	<sodipodi:guide  id="guide4523" inkscape:locked="false" orientation="0,1" position="147.04218,98.425002"></sodipodi:guide>
</sodipodi:namedview>
<g id="layer1" inkscape:groupmode="layer" inkscape:label="Layer 1">
	
		<path id="path4564" inkscape:connector-curvature="0" sodipodi:nodetypes="cscccccscccccssccccsscsccccscsccccsccccscccccccccccccccscscsccsccccccccccc" class="st0" d="
		M0.5,89.4C0.1,88.1,0,87.1,0,86.1c0.1-3.5,2.9-5.1,5.7-5.2c1.9,0.2,3.4,1.2,9.3-5.1l5.3-5.6l-2.1-4.6c-1.4-4.7-1.5-12.8-0.2-13.6
		c1.2-0.8,3.8,1.7,4.9,4.7c0.5,1.4-0.3,1.5,0,4.2c0.1,4.4,1.1,4.5,3.4,0.7c1.6-2.8,1.6-3-0.3-5.5l-2-2.6l2-2c1.1-1.1,2.9-2,4-2
		c1.3,0,1.7,0.6,2.3,0.5c2.6-0.6,4.8-2.9,4.6-4c-0.2-0.7-6.8-8-14.7-16.3C5.9,12.5,5.5,12,3.5,6.4C2.4,3.1,2.4,0,2.4,0
		S4.9,0.1,7,0.8C14.8,3.6,17.9,6,33.1,21l15.6,15.4L64.6,21C80.4,5.7,85.3,2.1,92.3,0.8l3.6-0.7l-2,5.3c-3.2,8.4-3.4,8.6-18.4,23.9
		c-16.6,16.8-27,26.7-29.7,32.4c-0.4,0.9,0.5,3.7,0.4,4.3c-0.3,1.9-2.1,3-2.9,3.8c-0.5,0.5-1.5,1.2-1.5,1.2s-1.3-0.8-2.7-1.8
		c-2.8-2.1-2.9-2.1-5.4-0.2c-3.6,2.6-3.4,3.8,1.5,3.8c1.6,0,2.7,0.2,4.3,0.2c1.2,0,2.1,1,3.1,1.8c1.6,1.3,2.7,2.7,2.3,3.1
		c-1.1,1.1-11.7,0.7-15.4-0.7C26,76,25.9,76,20.5,81.4c-3,3-6.3,5-6.1,7c0.2,1.9-0.7,4-1.4,4.6c-2.5,2.4-5.8,2.7-8.9,0.8
		C2.1,92.3,1.5,91.4,0.5,89.4L0.5,89.4z M86,94.1c-1.4-0.7-2.9-1.2-3.5-4.5c0.9-2.7-3.5-5.7-6.6-8.8c-4.7-4.7-6-5.5-7.5-4.6
		C64,78.5,52,78.8,52,76.6c0-1.4,7-5.4,8.5-4.9c0.8,0.3,2.5,0.2,3.7-0.2l2.2-0.8L64,69c-3-2.1-4.8-2.1-7.1,0
		c-0.8,0.7-1.6,1.3-1.6,1.3s-1.2-0.6-2.1-1.6c-1-1.1-2-2.2-1.1-5.6c-0.2-1.2-3-3.4-2.8-4.2c0.4-1.6,2.2-3.2,5.2-6.7
		c3.4-4,5.4-5.9,6.8-6c0.6,0,1.9,1.4,2.3,2.1c0.3,0.6,1.2,1,3.2,1c3.4,0,3.9,0.7,4.9,1.6c0.7,0.6,1.2,1.4,1.2,1.4s-0.9,1.4-2,3
		c-2,2.6-2,2.9-0.3,5.4c2.1,3.1,3.9,2.4,3.2-1.2c-0.6-3.3,4-10.2,5.4-8c1.2,1.9,1.1,8.1-0.3,13.3l-1.2,4.5l4.9,5
		c3,3.1,5.5,7.1,8.6,6c2.7,0.7,4.1,1.9,5.3,4.4c0.8,2.1,0.7,5.6-2.2,8C92.6,94.6,89.4,95.8,86,94.1L86,94.1z"/>
</g>
</svg>
