<?xml version="1.0" encoding="utf-8"?>
<!-- Generator: Adobe Illustrator 22.0.1, SVG Export Plug-In . SVG Version: 6.00 Build 0)  -->
<svg version="1.1"
	 id="svg8" inkscape:version="0.92.1 r15371" sodipodi:docname="smithing.svg" xmlns:cc="http://creativecommons.org/ns#" xmlns:dc="http://purl.org/dc/elements/1.1/" xmlns:inkscape="http://www.inkscape.org/namespaces/inkscape" xmlns:rdf="http://www.w3.org/1999/02/22-rdf-syntax-ns#" xmlns:sodipodi="http://sodipodi.sourceforge.net/DTD/sodipodi-0.dtd" xmlns:svg="http://www.w3.org/2000/svg"
	 xmlns="http://www.w3.org/2000/svg" xmlns:xlink="http://www.w3.org/1999/xlink" x="0px" y="0px" viewBox="0 0 164.5 65.4"
	 style="enable-background:new 0 0 164.5 65.4;" xml:space="preserve">
<style type="text/css">
	.st0{fill:#050505;}
</style>
<sodipodi:namedview  bordercolor="#666666" borderopacity="1.0" id="base" inkscape:current-layer="layer1" inkscape:cx="375.20802" inkscape:cy="758.83274" inkscape:document-units="mm" inkscape:guide-bbox="true" inkscape:pageopacity="0.0" inkscape:pageshadow="2" inkscape:window-height="1018" inkscape:window-maximized="1" inkscape:window-width="1920" inkscape:window-x="-8" inkscape:window-y="-8" inkscape:zoom="2" pagecolor="#ffffff" showgrid="false" showguides="true">
	<sodipodi:guide  id="guide4500" inkscape:locked="false" orientation="0,1" position="93.218376,109.75484"></sodipodi:guide>
	<sodipodi:guide  id="guide4502" inkscape:locked="false" orientation="0,1" position="91.706855,106.55702"></sodipodi:guide>
	<sodipodi:guide  id="guide4523" inkscape:locked="false" orientation="0,1" position="147.04218,98.425002"></sodipodi:guide>
</sodipodi:namedview>
<g id="layer1" inkscape:groupmode="layer" inkscape:label="Layer 1">
	<path id="path4577" inkscape:connector-curvature="0" sodipodi:nodetypes="cccscccccccccsscccsscccccccccccccsccc" class="st0" d="
		M30.3,65.4c-1.1-1.2-0.9-6,0.4-8.9c0.7-1.6,3-3.4,6.1-4.7c9.3-4,14-15,9.2-21.5C42.7,26,36.5,23.1,17.5,17L0,11.4V6.4V1.5l9.5-0.6
		c5.2-0.4,28.4-0.7,51.6-0.7L103.2,0l1.1,2.4c0.7,1.5,2.3,2.6,4.3,3c1.8,0.4,15.1,0.6,29.6,0.6c21.6,0,26.4,0.2,26.4,1.4
		c0,1.5-13.1,12.3-19.5,16.1c-5.7,3.4-14.2,5.4-27.8,6.5c-6.5,0.5-13.3,1.6-15.1,2.4c-4.9,2-7.7,6.1-7.7,11.2c0,5,2.1,7.1,8.2,8.1
		c4.6,0.7,6.6,2.9,7,7.4l-0.1,4.8l-11.9,0.4c-1.7-1.4-4.4-3-11.4-4.3c-13.3-3.1-30.9-0.2-37,4.8L30.3,65.4L30.3,65.4z M73.5,38.2
		c0-4.3,3.4-10.7,8-15.2c1.7-1.8,6.1-5.1,6.1-5.1c0-0.8-3.6-0.9-11.9-0.4c-6.5,0.4-11.9,0.9-12.2,1.1c0,0,0.2,0.6,1.1,2.1
		c2,3.1,3.8,8.1,3.8,14.4c0,3.4,0,4.8,0.6,5.4l4-0.1C73.4,40,73.5,39.3,73.5,38.2L73.5,38.2z"/>
</g>
</svg>
