<?xml version="1.0" encoding="utf-8"?>
<!-- Generator: Adobe Illustrator 22.0.1, SVG Export Plug-In . SVG Version: 6.00 Build 0)  -->
<svg version="1.1"
	 id="svg8" inkscape:version="0.92.1 r15371" sodipodi:docname="alchemy.svg" xmlns:cc="http://creativecommons.org/ns#" xmlns:dc="http://purl.org/dc/elements/1.1/" xmlns:inkscape="http://www.inkscape.org/namespaces/inkscape" xmlns:rdf="http://www.w3.org/1999/02/22-rdf-syntax-ns#" xmlns:sodipodi="http://sodipodi.sourceforge.net/DTD/sodipodi-0.dtd" xmlns:svg="http://www.w3.org/2000/svg"
	 xmlns="http://www.w3.org/2000/svg" xmlns:xlink="http://www.w3.org/1999/xlink" x="0px" y="0px" viewBox="0 0 77.9 142.9"
	 style="enable-background:new 0 0 77.9 142.9;" xml:space="preserve">
<style type="text/css">
	.st0{fill:#0F0F0F;}
</style>
<sodipodi:namedview  bordercolor="#666666" borderopacity="1.0" id="base" inkscape:current-layer="layer1" inkscape:cx="440.53622" inkscape:cy="672.15978" inkscape:document-units="mm" inkscape:guide-bbox="true" inkscape:pageopacity="0.0" inkscape:pageshadow="2" inkscape:window-height="1018" inkscape:window-maximized="1" inkscape:window-width="1920" inkscape:window-x="-8" inkscape:window-y="-8" inkscape:zoom="2" pagecolor="#ffffff" showgrid="false" showguides="true">
	<sodipodi:guide  id="guide4500" inkscape:locked="false" orientation="0,1" position="93.218376,109.75484"></sodipodi:guide>
	<sodipodi:guide  id="guide4502" inkscape:locked="false" orientation="0,1" position="91.706855,106.55702"></sodipodi:guide>
	<sodipodi:guide  id="guide4523" inkscape:locked="false" orientation="0,1" position="147.04218,98.425002"></sodipodi:guide>
</sodipodi:namedview>
<g id="layer1" inkscape:groupmode="layer" inkscape:label="Layer 1">
	<path id="path4603" inkscape:connector-curvature="0" class="st0" d="M19.3,141.5c-8.7-1.6-12.1-3.3-16.3-8.1
		c-3-3.4-3.2-4.1-2.8-9.3c0.7-8.9,12.7-36.6,23.6-54.3l4.1-6.7l0.6-21c0.5-18.5,0.4-21-0.9-21c-3,0-6.7-4.4-7.3-8.5
		c-0.6-4.8,2.1-8.9,7.3-11.1c4.5-1.9,22.3-1.8,26.8,0c8.2,3.4,7.9,15.1-0.5,18.6L51,21.2l-0.3,20.1l-0.3,20.1l10.1,20
		c11.3,22.4,17.4,37,17.4,41.6c0,7.2-7.4,14.7-17.5,17.9c-5.5,1.7-9.1,2-20.3,2C32.6,142.8,23.2,142.2,19.3,141.5L19.3,141.5z
		 M26.9,134.1c0-0.5-0.6-1.3-1.4-1.7c-0.8-0.4-2.6-2.8-4-5.3c-3-5.2-3.6-14.8-1.2-20.3c3-7,12-12.4,18.5-11.2
		c5.7,1.1,9.9,3.5,11.9,6.9c4.3,7.1,3.3,15.2-2.3,20.4c-3,2.7-4.3,3.3-8.4,3.3c-5.9,0-9.6-2.5-12.3-8.4l-1.9-4.1l0,3.2
		c0,3.6,3.7,8.6,8,10.9c8.6,4.4,19.5-2,21.4-12.6c1.5-7.9-2.6-14.3-13.5-21.6c-5.3-3.5-16.5-9.3-18-9.3c-1.3,0-10.6,19.4-14.4,29.9
		c-1.7,4.8-2.4,8.4-2,10.2c0.7,3.3,6.4,8.6,10.2,9.4c1.5,0.3,3.2,0.8,3.7,0.9C23.6,135.2,26.9,135,26.9,134.1L26.9,134.1z
		 M60.7,132.4c5.6-2.8,9.2-7.4,9.2-11.8c0-5-13.4-34.6-22.6-49.8l-3.4-5.6V40.7C43.9,17.4,44,16,45.9,15c1.1-0.6,2.8-1,3.9-1
		s2.5-0.7,3.2-1.6c1.1-1.3,1-1.8-0.4-3.3c-2.5-2.5-21.9-2.4-24.4,0.1c-2.4,2.4-0.6,5,3.9,5.7l3.4,0.5l0.3,23.8L36,63.2l-4,6
		c-2.2,3.3-3.9,6.1-3.8,6.2c0.1,0.1,4.6,2.5,9.9,5.4c11.8,6.5,18.6,12.3,22.3,19.1c6,11.1,4,23-5.2,31.1c-4.1,3.6-4.3,4-2.1,4
		C54.4,135,57.9,133.9,60.7,132.4L60.7,132.4z"/>
</g>
</svg>
