<?xml version="1.0" encoding="utf-8"?>
<!-- Generator: Adobe Illustrator 22.0.1, SVG Export Plug-In . SVG Version: 6.00 Build 0)  -->
<svg version="1.1"
	 id="svg8" inkscape:version="0.92.1 r15371" sodipodi:docname="archer.svg" xmlns:cc="http://creativecommons.org/ns#" xmlns:dc="http://purl.org/dc/elements/1.1/" xmlns:inkscape="http://www.inkscape.org/namespaces/inkscape" xmlns:rdf="http://www.w3.org/1999/02/22-rdf-syntax-ns#" xmlns:sodipodi="http://sodipodi.sourceforge.net/DTD/sodipodi-0.dtd" xmlns:svg="http://www.w3.org/2000/svg"
	 xmlns="http://www.w3.org/2000/svg" xmlns:xlink="http://www.w3.org/1999/xlink" x="0px" y="0px" viewBox="0 0 45.1 91.6"
	 style="enable-background:new 0 0 45.1 91.6;" xml:space="preserve">
<style type="text/css">
	.st0{fill:#191919;}
</style>
<sodipodi:namedview  bordercolor="#666666" borderopacity="1.0" id="base" inkscape:current-layer="layer1" inkscape:cx="326.78489" inkscape:cy="585.21759" inkscape:document-units="mm" inkscape:guide-bbox="true" inkscape:pageopacity="0.0" inkscape:pageshadow="2" inkscape:window-height="1018" inkscape:window-maximized="1" inkscape:window-width="1920" inkscape:window-x="-8" inkscape:window-y="-8" inkscape:zoom="1.4142136" pagecolor="#ffffff" showgrid="false" showguides="false">
	<sodipodi:guide  id="guide4530" inkscape:locked="false" orientation="1,0" position="99.531169,145.32113"></sodipodi:guide>
</sodipodi:namedview>
<g id="layer1" inkscape:groupmode="layer" inkscape:label="Layer 1">
	
		<path id="path4729" inkscape:connector-curvature="0" sodipodi:nodetypes="ccsscccsccssccccscssccscscsccccscccscccsccc" class="st0" d="
		M40.6,89.3c0.3-1.2,0.2-2.8-0.1-3.4c-0.4-0.6-4.8-3.2-9.8-5.7c-5.2-2.6-10.3-6-11.9-7.9c-1.5-1.8-6.6-11.1-11.3-20.6
		C3,44,1.6,40.9,0,34.5c-0.1-0.4,0-3.8,0.6-5.1c0.8-3,2.1-8.1,2.8-11.6c1.2-6.2,1.1-6.4-1.2-8.2C-0.1,7.8-0.1,7.7,1.6,7
		c1-0.4,2.5-0.3,3.2,0.2c0.7,0.5,6.6,11.3,13,23.9S33,60.9,37.4,69.3c7.8,15,9,18.8,6.7,21.1C42,92.5,40,91.9,40.6,89.3L40.6,89.3z
		 M25.1,48.9C16.2,31.4,8.6,16.7,8.2,16.3c-1-1.2-3.1,14-2.3,17.1c0.4,1.5,4.7,10.5,9.7,20c6.3,12,9.9,18,12.1,19.5
		c3.9,2.8,11.9,7.6,12.8,7.7C40.8,80.6,33.9,66.3,25.1,48.9L25.1,48.9z M34.9,53.4c-1-2.1-1.5-3.4-2.3-5.7c-0.2-0.5-0.2-0.2,0.6-2.1
		C33.1,42.4,19.7,17,17.3,12.5c-0.3-0.5-0.5-0.7-0.5-0.6l-1.6,0.8c-0.9-5-1-7.3-2.1-12.6c1.3,2.1,4.4,5.7,7.5,9.9
		c-0.5,0.3-1.4,0.9-1.4,0.9c0.1,0.2,0.2,0.4,0.4,0.7c0.7,1.5,5.4,10.7,8.9,18.1c3.5,7.4,6.4,14.1,7.3,14.9c2.3,0.9,1.8,0.5,2.2,1.2
		c0.8,1.6,2,3.5,2.9,5.2l2.5,4.9l-2.6-0.6c-2.1-0.5-2.3-0.3-2.6,1.4c-0.2,1-0.2,1.5-0.5,2.8C36.4,56.5,35.7,55.1,34.9,53.4
		L34.9,53.4z"/>
</g>
</svg>
