<?xml version="1.0" encoding="utf-8"?>
<!-- Generator: Adobe Illustrator 22.0.1, SVG Export Plug-In . SVG Version: 6.00 Build 0)  -->
<svg version="1.1"
	 id="svg8" inkscape:version="0.92.1 r15371" sodipodi:docname="enchanting.svg" xmlns:cc="http://creativecommons.org/ns#" xmlns:dc="http://purl.org/dc/elements/1.1/" xmlns:inkscape="http://www.inkscape.org/namespaces/inkscape" xmlns:rdf="http://www.w3.org/1999/02/22-rdf-syntax-ns#" xmlns:sodipodi="http://sodipodi.sourceforge.net/DTD/sodipodi-0.dtd" xmlns:svg="http://www.w3.org/2000/svg"
	 xmlns="http://www.w3.org/2000/svg" xmlns:xlink="http://www.w3.org/1999/xlink" x="0px" y="0px" viewBox="0 0 72.9 143.2"
	 style="enable-background:new 0 0 72.9 143.2;" xml:space="preserve">
<style type="text/css">
	.st0{fill:#090909;}
</style>
<sodipodi:namedview  bordercolor="#666666" borderopacity="1.0" id="base" inkscape:current-layer="layer1" inkscape:cx="204.67669" inkscape:cy="752.94427" inkscape:document-units="mm" inkscape:guide-bbox="true" inkscape:pageopacity="0.0" inkscape:pageshadow="2" inkscape:window-height="1018" inkscape:window-maximized="1" inkscape:window-width="1920" inkscape:window-x="-8" inkscape:window-y="-8" inkscape:zoom="2.8284271" pagecolor="#ffffff" showgrid="false" showguides="true">
	<sodipodi:guide  id="guide4500" inkscape:locked="false" orientation="0,1" position="93.218376,109.75484"></sodipodi:guide>
	<sodipodi:guide  id="guide4502" inkscape:locked="false" orientation="0,1" position="91.706855,106.55702"></sodipodi:guide>
	<sodipodi:guide  id="guide4523" inkscape:locked="false" orientation="0,1" position="147.04218,98.425002"></sodipodi:guide>
</sodipodi:namedview>
<g id="layer1" inkscape:groupmode="layer" inkscape:label="Layer 1">
	
		<path id="path4590" inkscape:connector-curvature="0" sodipodi:nodetypes="ccscscccscsccsssccccccscccsccsccsccccccccccscccccssssscccsscsccccc" class="st0" d="
		M25.5,142c-9.8-3.1-16.9-9.8-20.5-19.2C2.4,115.6,2.3,104,5,96.4c2.1-6.1,1.3-8.3-1.9-5.1C0.4,94,0,94,0,90.9
		c0-5.8,4.7-13.2,10.3-16.1c2.5-1.3,3-1.3,4,0c0.6,0.8,2.3,1.6,3.7,1.8c2.4,0.3,2.5,0.7,2.8,7.8c0.3,6.7,0,8.1-2.9,13.8
		c-5.6,11-5.2,21.6,0.9,28.5c10.9,12.1,28.4,9.4,32.7-5c1.5-5.1-4.1-13.7-9.5-14.4c-1-0.1-2.1-0.4-2.2-1.1l-0.1-3.2
		c0-0.5,0.9-0.5,1.6-0.5c9.6,0,17.9,10.3,16.1,19.9c-1.7,8.9-7.6,15.5-17,19C34.2,143.7,31.2,143.8,25.5,142L25.5,142z M28.2,129
		l-3-3.4l-0.7-26.9c-0.4-14.8-0.4-28.6,0-30.6c0.8-4.1,0.1-4.6-2.8-2c-1.8,1.7-2,1.6-3.4-0.2c-3.8-5.2-2.9-10.2,2.9-15.9l4.2-4.1
		l0.2-8.6c0.2-9.1,0.8-11.1,4.4-14.3l2.2-2l3.4,3.7c3.3,3.6,3.4,4,3.4,12.1c0,7.8,0.2,8.5,2.5,10c3,2,4.7,4.9,5.6,9.8
		c0.6,3.2,0.3,4.2-2.3,7.3l-3,3.6l-2.3-2.1l-2.3-2.1l-0.5,8.8c-0.3,4.9,0,18.8,0.6,30.9l1.1,22.1l-2.8,3.7c-1.5,2-3.2,3.7-3.6,3.7
		S29.9,130.9,28.2,129L28.2,129z M39,79.4c0-3.3,0.9-5.2,5.2-10.7c11.1-14.5,14.7-28.5,9.7-38.2c-5.2-10.2-18.6-13.7-29.9-8
		c-7.6,3.9-10,14.8-4.7,21.5c1.8,2.3,1.9,2.8,0.6,4.1c-2.1,2.1-4.3,0.8-7.8-4.4c-9.2-13.9,4.1-32.2,23.4-32.2c2.3,0,6.6,0.6,9.6,1.4
		c3,0.8,5.9,1,6.3,0.6C52.6,12.2,48.6,6,44.7,3c-5-3.9-2.6-4,3.9-0.2c12.1,7.1,19.7,15.9,22.8,26.6c1.9,6.3,2,15.1,0.3,20.1
		c-1,3-1.6,3.5-3.8,3.2c-2.3-0.3-3.1,0.5-6.7,7c-2.2,4-5.9,9.5-8.1,12.2c-4,4.8-11.8,11.6-13.3,11.6C39.3,83.4,39,81.6,39,79.4
		L39,79.4z"/>
</g>
</svg>
