<?xml version="1.0" encoding="utf-8"?>
<!-- Generator: Adobe Illustrator 22.0.1, SVG Export Plug-In . SVG Version: 6.00 Build 0)  -->
<svg version="1.1"
	 id="svg8" inkscape:version="0.92.1 r15371" sodipodi:docname="family.svg" xmlns:cc="http://creativecommons.org/ns#" xmlns:dc="http://purl.org/dc/elements/1.1/" xmlns:inkscape="http://www.inkscape.org/namespaces/inkscape" xmlns:rdf="http://www.w3.org/1999/02/22-rdf-syntax-ns#" xmlns:sodipodi="http://sodipodi.sourceforge.net/DTD/sodipodi-0.dtd" xmlns:svg="http://www.w3.org/2000/svg"
	 xmlns="http://www.w3.org/2000/svg" xmlns:xlink="http://www.w3.org/1999/xlink" x="0px" y="0px" viewBox="0 0 66.9 83"
	 style="enable-background:new 0 0 66.9 83;" xml:space="preserve">
<style type="text/css">
	.st0{fill:#060606;}
</style>
<sodipodi:namedview  bordercolor="#666666" borderopacity="1.0" id="base" inkscape:current-layer="layer1" inkscape:cx="411.28572" inkscape:cy="466.71183" inkscape:document-units="mm" inkscape:guide-bbox="true" inkscape:pageopacity="0.0" inkscape:pageshadow="2" inkscape:window-height="975" inkscape:window-maximized="0" inkscape:window-width="1269" inkscape:window-x="636" inkscape:window-y="8" inkscape:zoom="2.8284271" pagecolor="#ffffff" showgrid="false" showguides="true">
	<sodipodi:guide  id="guide4530" inkscape:locked="false" orientation="1,0" position="99.531169,145.32113"></sodipodi:guide>
	<sodipodi:guide  id="guide4744" inkscape:locked="false" orientation="0,1" position="107.29461,133.83805"></sodipodi:guide>
	<sodipodi:guide  id="guide4746" inkscape:locked="false" orientation="0,1" position="107.0381,130.7399"></sodipodi:guide>
	<sodipodi:guide  id="guide4748" inkscape:locked="false" orientation="1,0" position="105.80449,132.23661"></sodipodi:guide>
	<sodipodi:guide  id="guide4750" inkscape:locked="false" orientation="1,0" position="107.46217,130.36517"></sodipodi:guide>
	<sodipodi:guide  id="guide4752" inkscape:locked="false" orientation="0,1" position="102.45989,143.0569"></sodipodi:guide>
	<sodipodi:guide  id="guide4754" inkscape:locked="false" orientation="0,1" position="103.84896,142.70964"></sodipodi:guide>
	<sodipodi:guide  id="guide4756" inkscape:locked="false" orientation="0,1" position="103.56784,141.89935"></sodipodi:guide>
</sodipodi:namedview>
<g id="layer1" inkscape:groupmode="layer" inkscape:label="Layer 1">
	
		<path id="path4742" inkscape:connector-curvature="0" sodipodi:nodetypes="cscccccccccccsccccccccccccccccsccccccccccccccccccccccccccccccccccccccccccccccccssccc" class="st0" d="
		M3,79.6V67.7C3,60.9,3,56.2,3.1,55c0.1-1.5,0-2,0-2l-1.5,0.8L0,50.3c0,0,1.8-1.6,6.4-5.8c6.3-6,7.4-7,7.4-7l-0.1-5.3L11,34.6
		c-0.1-0.1-1-1-1.4-1.4c-0.9-1-1.8-2.1-1.8-2.1s0.5-1,1.7-2.4c1-1.3,4.8-6.8,8.3-12.2c3.8-5.7,6.6-10.5,6.6-10.5l-3-2.3L24.8,0
		l3.3,2.6l10.6,0l4-2.6l2.8,3.6l-3.1,2.3l15.5,25.2L55,35l-2.4-2.3l0.1,4.9l14.2,13.8l-2.3,3.3l-1.4-1.1l0.2,25.1
		c-4.4,1.5-9.1,2.9-13.6,3.5c-11.4,1.5-22.8,0.3-34.2-0.3C10.4,81.4,6.9,80.5,3,79.6L3,79.6z M41.5,79.7l-3.1-18.5
		c-3.2-0.1-6,0-9.1,0l-2.5,18.4L41.5,79.7z M18,66.7v-6h-3.5H11v6v6h3.5H18V66.7z M56,66.7v-6h-3.5H49v6v6h3.5H56V66.7z M25.9,28.7
		l-4.3,0l0,9l4.3,0L25.9,28.7z M45.5,28.8h-4.7l0,8.8h4.7L45.5,28.8z M36.4,22.4c1.4-1.9,2-4.3,2.1-7.9l0-5.2H33l-5.7,0l-0.1,3.4
		c-0.1,4.6,0.2,7.2,2.8,10.5C32.5,26.2,33.6,26.1,36.4,22.4L36.4,22.4z M30.5,20.5C29.7,19.3,29,16.8,29,15l0-3.3l8,0l0,3.2
		c0,3.3-2.3,7.7-4,7.7C32.5,22.7,31.4,21.7,30.5,20.5L30.5,20.5z"/>
</g>
</svg>
