<?xml version="1.0" encoding="utf-8"?>
<!-- Generator: Adobe Illustrator 22.0.1, SVG Export Plug-In . SVG Version: 6.00 Build 0)  -->
<svg version="1.1"
	 id="svg8" inkscape:version="0.92.1 r15371" sodipodi:docname="farm.svg" xmlns:cc="http://creativecommons.org/ns#" xmlns:dc="http://purl.org/dc/elements/1.1/" xmlns:inkscape="http://www.inkscape.org/namespaces/inkscape" xmlns:rdf="http://www.w3.org/1999/02/22-rdf-syntax-ns#" xmlns:sodipodi="http://sodipodi.sourceforge.net/DTD/sodipodi-0.dtd" xmlns:svg="http://www.w3.org/2000/svg"
	 xmlns="http://www.w3.org/2000/svg" xmlns:xlink="http://www.w3.org/1999/xlink" x="0px" y="0px" viewBox="0 0 82.2 100"
	 style="enable-background:new 0 0 82.2 100;" xml:space="preserve">
<style type="text/css">
	.st0{fill:#0B0B0B;}
</style>
<sodipodi:namedview  bordercolor="#666666" borderopacity="1.0" id="base" inkscape:current-layer="layer1" inkscape:cx="413.66879" inkscape:cy="823.73327" inkscape:document-units="mm" inkscape:guide-bbox="true" inkscape:pageopacity="0.0" inkscape:pageshadow="2" inkscape:window-height="975" inkscape:window-maximized="0" inkscape:window-width="1269" inkscape:window-x="636" inkscape:window-y="8" inkscape:zoom="2" pagecolor="#ffffff" showgrid="false" showguides="true">
	</sodipodi:namedview>
<g id="layer1" inkscape:groupmode="layer" inkscape:label="Layer 1">
	
		<path id="path4832" inkscape:connector-curvature="0" sodipodi:nodetypes="ccscscccscssscsssccccccccccssscsccccscccscccccccssccscsscccccccscccsscsscssccsccccccccccccccccccccccccsccccccccccccccc" class="st0" d="
		M68.7,98.5c-3.9-3.9-8.8-13.7-8.2-16.3c-0.1-0.9,0.3-1.3,0.3-2.5c0,0-0.2-2.8-1.2-2.9c0,0-2.2-0.9-10.8-0.1l-9.4,0.9l-2,8.2
		c-2.6,10.6-4.3,10.2-4.7-1.2c-0.2-6.6-1-7.8-1-7.8c-4.9-0.5-12.5-4.3-17.2-7.3C-1.6,59.4-5,32.1,7.8,14.7C11.8,9.2,23.1,0,25.8,0
		c0.9,0-0.7,3-3.9,7.3C6,29.1,8.5,54.1,27.1,60.7c2.5,0.9,4.8,1.6,5,1.6c0.2,0,0.4-1.9,0.4-4.2c0-4,1.5-6.4,2.9-4.9
		c0.4,0.4,0.7,2.7,0.7,5.1c0,2.7,0.1,4.5,0.3,4.7l3.7,0c0.2-0.2,0.9-2.7,1.8-5.9c0.9-3.2,2.3-6,3.1-6.2c1.1-0.4,1.3,0.2,0.8,2
		c-0.4,1.4-1,4.2-1.3,6.4l-0.6,3.8l5.7-1c3.1-0.6,7.3-1.7,9.2-2.5c2-0.8,4-1.5,4.5-1.5c1,0,7.3,11.9,7.3,13.7c0,0.6-0.8,0.8-1.6,1.1
		c-1.7,0.6-0.3,3.1,1.8,3.2c3.3,1.2,11.4,12,11.4,14.7c0,2.2-6,8-9.2,9C71.5,100.3,70.1,99.9,68.7,98.5L68.7,98.5z M36.4,52.1
		c-1.7-1.7-0.3-4.8,3.7-7.7c5-3.6,7.2-4,7.2-1.3C47.3,46.3,38.1,53.8,36.4,52.1z M26.8,47.5c-3.9-4.4-4.4-6.5-1.4-7.1
		c2.3-0.4,9.3,6.4,9.3,9.2C34.7,53.2,31.1,52.2,26.8,47.5z M47.8,48.6c-1-1.7,1.6-4.3,6.7-6.6c8.2-3.6,8.2,1.9-0.1,6.2
		C51.1,50,48.8,50.1,47.8,48.6L47.8,48.6z M30.1,41.1c-3.7-2.8-6.6-8.2-5.2-9.6c2.3-2.3,9.7,4.8,9.7,9.3
		C34.7,43.9,33.9,43.9,30.1,41.1L30.1,41.1z M36.4,42.5c-1-1.7,1.4-5.2,5.4-8.1c5.2-3.6,7.3-2.9,4.7,1.6
		C43.5,41.4,37.9,45,36.4,42.5L36.4,42.5z M50.5,39.3c0-1.1,0.8-2.7,1.8-3.6c2.3-2,9.5-4.6,10.4-3.8c1.3,1.3-1.8,5.1-5.9,7.2
		C51.7,41.7,50.5,41.8,50.5,39.3L50.5,39.3z M46.2,38.8c0.6-1.9,1.3-1.6,1.9-2c0.8-0.3,1.1,0.7,0.7,1.8
		C48.1,40.4,45.5,40.7,46.2,38.8z M29.5,30.1c-3.4-3.9-4.4-8.9-1.8-8.9c2.3,0,8,7.2,8,10.1C35.7,34.9,33.3,34.5,29.5,30.1L29.5,30.1
		z M36.8,32.7c0-4,6.3-11.1,8.9-10.1c2.5,1,2,3.4-1.7,7.5C41,33.6,36.8,35.1,36.8,32.7L36.8,32.7z M52.6,30.7c0-3.7,9.5-11,11.1-8.5
		c1.7,2.8-3,8.2-8.7,10C53.1,32.8,52.6,32.5,52.6,30.7L52.6,30.7z M48.3,30.9c-0.5-1-0.9-1.5-0.8-3.6c1.1-1.3,0.6-5.2-0.1-5.6
		c-0.6-0.4-1.1-1.5-1.1-2.5c0-1.4,0.6-1.1,2.6,1.2c2.6,2.9,3.2,6.3,2,9.6C50.3,31.7,48.5,32.3,48.3,30.9L48.3,30.9z M32.3,22.5
		c-4.2-4.8-5.5-11.3-2.2-10.7c2.4,0.5,6.8,7.1,6.4,9.7C36.1,24.4,34.3,24.8,32.3,22.5z M38.3,21.4c1.6-6.6,8-11.6,8-6.2
		c0,3.1-4.7,9.1-7.1,9.1C38,24.3,37.8,23.6,38.3,21.4z M55.3,20.9c1-3.4,7.9-9.7,9.2-8.4c1.8,1.8-0.1,5.4-4.2,8.2
		C55.5,23.9,54.4,23.9,55.3,20.9L55.3,20.9z M50.8,20.3c-0.4-1-1.1-2.1-1.5-2.4c-2-2.3-2.4-3.5-2.6-5.2c-0.1-3.2,0.6-4.2,2-4.2
		c3.1,0,5.4,5.1,5,11.4C53.7,22.6,51.8,23,50.8,20.3L50.8,20.3z M35.3,13.7c-2.1-3.6-1.6-8.4,1.1-10.7c1.4-1.1,1.9-1,3.1,0.7
		c1.9,2.5,1.9,8.9,0,11.4C37.7,17.5,37.6,17.4,35.3,13.7L35.3,13.7z M54.8,13.4c-1.6-4.1-1.4-7.2,0.5-10c1.9-2.7,4.2-3,5.1-0.7
		c1.3,3.5,0.6,7.8-1.9,10.7l-2.6,3L54.8,13.4z"/>
</g>
</svg>
