<?xml version="1.0" encoding="utf-8"?>
<!-- Generator: Adobe Illustrator 22.0.1, SVG Export Plug-In . SVG Version: 6.00 Build 0)  -->
<svg version="1.1"
	 id="svg8" inkscape:version="0.92.1 r15371" sodipodi:docname="killer.svg" xmlns:cc="http://creativecommons.org/ns#" xmlns:dc="http://purl.org/dc/elements/1.1/" xmlns:inkscape="http://www.inkscape.org/namespaces/inkscape" xmlns:rdf="http://www.w3.org/1999/02/22-rdf-syntax-ns#" xmlns:sodipodi="http://sodipodi.sourceforge.net/DTD/sodipodi-0.dtd" xmlns:svg="http://www.w3.org/2000/svg"
	 xmlns="http://www.w3.org/2000/svg" xmlns:xlink="http://www.w3.org/1999/xlink" x="0px" y="0px" viewBox="0 0 78.3 79.1"
	 style="enable-background:new 0 0 78.3 79.1;" xml:space="preserve">
<style type="text/css">
	.st0{fill:#080808;}
</style>
<sodipodi:namedview  bordercolor="#666666" borderopacity="1.0" id="base" inkscape:current-layer="layer1" inkscape:cx="406.14216" inkscape:cy="625.42404" inkscape:document-units="mm" inkscape:guide-bbox="true" inkscape:pageopacity="0.0" inkscape:pageshadow="2" inkscape:window-height="975" inkscape:window-maximized="0" inkscape:window-width="1269" inkscape:window-x="636" inkscape:window-y="8" inkscape:zoom="4" pagecolor="#ffffff" showgrid="false" showguides="true">
	</sodipodi:namedview>
<g id="layer1" inkscape:groupmode="layer" inkscape:label="Layer 1">
	
		<path id="path4793" inkscape:connector-curvature="0" sodipodi:nodetypes="ccsscccccccscscccccscccccsccccccccccccscssscscsssccccscsccccccscscccsccccscc" class="st0" d="
		M32.2,79c-1.3-0.3-3.1-2-4.2-4.2c-1-2-3.5-5.2-5.5-7.1s-3.6-4.3-3.6-5.2c0-2.1,0.4-2.2,3.2-0.7c2.5,1.4,3.8,0.2,4.7-4
		c0.4-1.7,0.9-3,1.2-2.8c0.3,0.2,1.4-0.4,2.4-1.2c1.8-1.5,1.8-2.4,0.3-13.5c-0.2-1.7,0.4-2.1,3.6-2.3c2.2-0.2,4.8,0.3,6.1,1.2
		c0.7,1.6,2.8,1.8,4.4,0.9c1.1-0.6,3.7,0.2,5.5,1.1c1.7,1.5,2.6,1.8,4.5,1.6c0.6,0,1.8,1.1,2.7,2.5c0.6,2.5,1.7,2.3,3.5,1.9
		c2.5-0.8,3.5,1.9,1.9,5.4c-0.7,1.5-1.6,6.6-2,11.3c-1,11.6-3.1,14.8-9.8,14.6c-2.6-0.1-7.4,0.2-10.7,0.5
		C37.1,79.2,33.4,79.2,32.2,79L32.2,79z M46.5,58.7c0.1-4.8,0-4.9-3.3-5.3c-3.6-0.4-3.6-0.3-2.7,5.4c0.2,1.2-0.2,2.5,0.2,3.1
		c0.5,0.8,1.8,0.3,2.7,0.5c1.2,0.2,2.2,1,2.5,1.1C47.3,62.5,46.5,61.4,46.5,58.7L46.5,58.7z M8.5,57.5c-2.7-2.2-5.7-4.5-6.7-5
		c-2.3-1.2-2.3-5.5,0-6.8c1.2-0.6,2.9-0.5,5.2,0.5c4.9,2.1,6.9,4.1,6.3,6.6c-0.4,1.4,0.2,2.6,1.8,3.8c1.5,1.1,2.1,2.3,1.7,3.4
		C15.7,62.5,13.8,61.9,8.5,57.5L8.5,57.5z M64.5,45.8c-0.9-1.5,2.9-10,4.8-10.7c1.8-0.7,4.1-5.9,3.2-7.3c-0.7-1.1,2.8-5.1,4.4-5.1
		c3.5,0,0.3,9.5-5.8,16.9c-2,2.4-4.1,5.1-4.7,5.9C65.6,46.5,65,46.6,64.5,45.8L64.5,45.8z M27.5,29.6c-1.5-2.8-2.8-6.4-2.8-8
		c0-1.6-0.5-3-0.9-3c-0.5,0-0.8-2.5-0.8-5.5c0-4.2,0.4-5.7,1.8-6.4c1-0.5,2.4-0.6,3-0.2c1.8,1.1,3.3,7.2,2.6,10.4
		c-0.4,1.8-0.1,3.4,0.9,4.5c0.8,0.9,1.7,3.3,2.1,5.2c0.3,1.9,0.9,4.5,1.3,5.8c0.6,1.9,0.3,2.2-1.8,2.2
		C30.8,34.6,29.7,33.5,27.5,29.6L27.5,29.6z M54,33.2c-0.9-1.1-0.8-1.8,0.8-3.3c1.1-1,2.2-3.6,2.5-5.8c2.1-15.1,2.9-17,6.3-16.3
		c1.5,0.3,1.8,1.1,1.5,4.3c-0.2,2.2-0.8,4.5-1.3,5.2c-0.5,0.6-0.9,1.8-0.7,2.5c0.2,1.3-1.5,8.3-3.2,12.6
		C58.9,34.9,55.8,35.3,54,33.2L54,33.2z M43.4,29.6c-0.9-1.6-1.3-4-1.1-5.3c0.3-1.2,0.7-6.4,1-11.4c0.3-5,0.8-9.8,1.1-10.7
		c0.8-2,3.4-3,4.9-1.7c1.5,1.2,1.3,7.9-0.3,10.8c-0.7,1.2-0.9,2.7-0.6,3.3c1.1,1.7,0.6,12.1-0.6,15.1C46.4,33.4,45.4,33.3,43.4,29.6
		L43.4,29.6z"/>
</g>
</svg>
