<?xml version="1.0" encoding="utf-8"?>
<!-- Generator: Adobe Illustrator 22.0.1, SVG Export Plug-In . SVG Version: 6.00 Build 0)  -->
<svg version="1.1"
	 id="svg8" inkscape:version="0.92.1 r15371" sodipodi:docname="thief.svg" xmlns:cc="http://creativecommons.org/ns#" xmlns:dc="http://purl.org/dc/elements/1.1/" xmlns:inkscape="http://www.inkscape.org/namespaces/inkscape" xmlns:rdf="http://www.w3.org/1999/02/22-rdf-syntax-ns#" xmlns:sodipodi="http://sodipodi.sourceforge.net/DTD/sodipodi-0.dtd" xmlns:svg="http://www.w3.org/2000/svg"
	 xmlns="http://www.w3.org/2000/svg" xmlns:xlink="http://www.w3.org/1999/xlink" x="0px" y="0px" viewBox="0 0 57 97.1"
	 style="enable-background:new 0 0 57 97.1;" xml:space="preserve">
<style type="text/css">
	.st0{fill:#0C0C0C;}
</style>
<sodipodi:namedview  bordercolor="#666666" borderopacity="1.0" id="base" inkscape:current-layer="layer1" inkscape:cx="413.50317" inkscape:cy="644.04455" inkscape:document-units="mm" inkscape:guide-bbox="true" inkscape:pageopacity="0.0" inkscape:pageshadow="2" inkscape:window-height="975" inkscape:window-maximized="0" inkscape:window-width="1269" inkscape:window-x="636" inkscape:window-y="8" inkscape:zoom="2" pagecolor="#ffffff" showgrid="false" showguides="true">
	</sodipodi:namedview>
<g id="layer1" inkscape:groupmode="layer" inkscape:label="Layer 1">
	<path id="path4806" inkscape:connector-curvature="0" class="st0" d="M23.2,91.7C15.9,81.7,0,52,0,48.2c0-3.5,12-20.4,28.3-39.9
		C32.1,3.7,35.6,0,36.1,0S37,1.1,37,2.5S41.5,14,47,24.9c6.4,12.6,10,20.9,10,23c0,2.4-2.7,7-12,19.9C38.4,77,31.6,86.4,29.9,88.6
		c-2.6,3.5-2.9,4.5-2,6.3C30.2,99,27.1,97,23.2,91.7L23.2,91.7z M39.7,67.4c-0.1-0.1-2.1,0.4-4.2,1.1c-4.6,1.6-14.2,1.9-17.8,0.5
		c-2.4-0.9-2.2-0.4,2.7,9.3l5.2,10.3l7.2-10.5C36.7,72.4,39.8,67.5,39.7,67.4L39.7,67.4z M36.2,63.4c4.6-2.3,8.6-6.3,10.3-10.3
		c1.8-4.1,1.9-11.2,0.2-13.4c-2.2-2.9-9.1-5.5-16-6.2c-6.1-0.6-7.2-0.4-11.9,2.1C10.1,40.5,7.3,47,10.8,55
		c1.9,4.4,6.9,9.2,10.7,10.3C24.8,66.2,32.7,65.2,36.2,63.4L36.2,63.4z M34.6,28.2l8.1,0.4l-4.6-9.8C34,10.1,32,7.2,32,9.9
		c0,0.5-2.9,5.2-6.5,10.4c-3.6,5.2-6.5,9.8-6.5,10.1c0,0.3,1.7-0.2,3.7-1C25.5,28.2,28.7,27.9,34.6,28.2L34.6,28.2z"/>
</g>
</svg>
