<?xml version="1.0" encoding="utf-8"?>
<!-- Generator: Adobe Illustrator 22.0.1, SVG Export Plug-In . SVG Version: 6.00 Build 0)  -->
<svg version="1.1"
	 id="svg8" inkscape:version="0.92.1 r15371" sodipodi:docname="magic.svg" xmlns:cc="http://creativecommons.org/ns#" xmlns:dc="http://purl.org/dc/elements/1.1/" xmlns:inkscape="http://www.inkscape.org/namespaces/inkscape" xmlns:rdf="http://www.w3.org/1999/02/22-rdf-syntax-ns#" xmlns:sodipodi="http://sodipodi.sourceforge.net/DTD/sodipodi-0.dtd" xmlns:svg="http://www.w3.org/2000/svg"
	 xmlns="http://www.w3.org/2000/svg" xmlns:xlink="http://www.w3.org/1999/xlink" x="0px" y="0px" viewBox="0 0 128 162.7"
	 style="enable-background:new 0 0 128 162.7;" xml:space="preserve">
<style type="text/css">
	.st0{fill:#080808;}
</style>
<sodipodi:namedview  bordercolor="#666666" borderopacity="1.0" id="base" inkscape:current-layer="layer1" inkscape:cx="288.3304" inkscape:cy="337.54449" inkscape:document-units="mm" inkscape:guide-bbox="true" inkscape:pageopacity="0.0" inkscape:pageshadow="2" inkscape:window-height="1018" inkscape:window-maximized="1" inkscape:window-width="1920" inkscape:window-x="-8" inkscape:window-y="-8" inkscape:zoom="1" pagecolor="#ffffff" showgrid="false" showguides="true">
	<sodipodi:guide  id="guide4530" inkscape:locked="false" orientation="1,0" position="99.531169,145.32113"></sodipodi:guide>
	<sodipodi:guide  id="guide4532" inkscape:locked="false" orientation="0,1" position="100.20937,142.81882"></sodipodi:guide>
</sodipodi:namedview>
<g id="layer1" inkscape:groupmode="layer" inkscape:label="Layer 1">
	
		<path id="path4716" inkscape:connector-curvature="0" sodipodi:nodetypes="csscccccsccccsccssccccccscccccccscccccccscccccsssccccsscsccscccccsccccscssssccsscsccccccsssscccsccccccccscccssccccccccccscssscccccc" class="st0" d="
		M121.5,157.9c-6-13.8-20.2-50.8-20.2-52.6c0-0.9,7.7-5.6,9.2-5.6c1.3,0,1.8,1.4,2.3,6.4c0.4,3.8,3.8,15.5,8.3,28.8
		c7.6,22.4,7.7,22.5,5.8,25.1c-1,1.4-2.2,2.5-2.6,2.6C124,162.7,122.7,160.5,121.5,157.9L121.5,157.9z M93.5,133.9
		c-8.3-9.1-10.5-19.3-5.8-28.2c1.5-2.8,1.7-3,3.2-1.5c1.3,1.3,1.4,2.2,0.4,5.6C89,118,90.8,126,97,134.1
		C101.4,139.9,98.9,139.8,93.5,133.9L93.5,133.9z M94.9,104.2c-1.5-1.5-0.3-3.1,5.9-7.4c3.7-2.4,6.4-4.7,6.1-5
		c-0.3-0.3-2.3,0.8-4.7,2.4c-9.8,6.9-9.5,6.7-12.1,4.7c-1.3-0.8-2.1-1.5-1.7-3c0.2-1,3.9-2.6,5.8-3.9c9.5-7.3,11.3-8.9,6.1-5.8
		c-2.5,1.5-6.1,4.1-7.9,5.7c-4,3.4-6.9,3.7-7.9,0.7c-0.5-1.7,0.7-3.6,6.3-9.3c5.5-5.6,6-6.4,2.6-3.9c-2.3,1.8-4.8,4.2-5.3,5.1
		c-0.5,1-2.2,2.6-3.7,3.6c-2.6,1.7-2.8,1.7-4.1,0c-2.3-3.1-1.5-4.8,6.1-13l7.4-8l3.8,1.2c3.8,1.2,4.9,3.7,2.7,5.8
		c-0.7,0.7,0.1,0.9,2.3,0.6c4.5-0.5,7.9,2.9,6,6c-1.1,1.7-1,2,0.5,1.7c1-0.2,2.3,0.8,3.4,2.5c1.4,2.6,1.4,2.9-0.1,4.2
		c-1.6,1.2-1.6,1.4,0.3,3c2.7,2.3,2,4.9-1.6,6c-1.7,0.5-4.9,2.3-7,3.9C100.1,104.7,96.4,105.6,94.9,104.2L94.9,104.2z M112.2,78.4
		c0.2-1.4-0.5-4.8-1.1-5.9c-0.3-0.6-0.5-0.9-0.5-0.9c0,0.2-0.1,1-0.3,1.4c-1.4,3.9,0,0.7-2.4-1.4c0,0-0.1-1.4-0.3-2.9
		c-1-7.7-4.8-10.7-9.9-15.1c1.6-2.5-9.1-11.1-12.8-12.9c-1.5-0.7-0.6-1.3-0.7-3.9c0-4-1.4-4.9-1.7-5.7c-0.8-2.1,3.1-1.8,11.5,0.7
		c12.2,3.8,20.1,9,18.7,14.8c-0.6,2.3,0,0.7-1.4-1.3c-1-2.5-3.9-3.6-4.5-3c-0.2,0.2,1.3,2.7,3.2,5.6c4.8,7,6.6,13.9,6.6,23.9
		c0,8.3-2.4,14.2-2.5,13.2c-0.1-0.8-0.1-2.4-1.4-4.2C111.7,79.8,111.8,80.5,112.2,78.4L112.2,78.4z M65,79.3
		c0.3-4.2-2.3-6.1-5.1-3.7c-1,0.9-2.9,1.7-4.3,1.7c-1.8,0-2.1-0.4-1.5-1.7c0.4-1,0.8-3.1,0.9-4.9c0.1-2.8-0.2-3-3.9-3.4l-4-0.3
		l2.6-2.7c1.4-1.5,2.9-4,3.2-5.5c0.6-2.5,0.4-2.8-1.9-2.8c-3,0-3.2-0.7-1.1-3.5c0.8-1.1,1.5-2.7,1.5-3.8s1.3-3.4,2.8-5.2
		c2.8-3.4,5-9.9,3.2-9.9c-1.5,0-4.1,4.3-4.1,6.8c0,1.2-1,2.9-2.2,3.9c-2.2,1.5-2.3,1.5-3-1.4c-0.4-1.7-1.1-3-1.5-3
		c-0.4,0-2.9-1.8-5.7-4.1c-2.7-2.2-6.6-4.6-8.7-5.2c-3.5-1-3.9-1.5-4.3-4.9l-0.4-3.8l7.1,0.5c5.8,0.4,7.4,0.1,8.5-1.2
		c1.2-1.5,0.8-2.3-3.9-7l-5.3-5.3l-2.5,2.7c-1.4,1.5-3.2,3-3.5,3c-0.2,0-0.5-2-1.8-3.5c-1-1.1-2.3-1.9-2.5-2.6
		c-0.2-0.9,0.3-1.3,1.2-3.5c2.4-5.8,5.6-6.7,11.9-3.5c2.7,1.3,7.4,2.8,10.4,3.1c3.6,0.4,6.2,1.4,7.9,3c1.9,1.7,3.8,2.4,7,2.4
		c2.4,0,5.9,0.3,7.7,0.6c3.1,0.6,3.2,0.8,2.7,4.7c-0.3,2.2-1.2,4.8-2.1,5.8c-1.5,1.6-1.3,1.9,1.5,4.1c4,2.9,6.2,8.1,6.2,14.8
		c0.1,6.8-0.8,8.3-3.5,5.9c-2.8-2.6-5.4-0.7-5.7,4.4c-0.2,3.1,0.2,4.6,2.2,6.7c1.4,1.5,3.5,2.7,4.5,2.7s4.8,1.8,8.3,4.1
		c7.1,4.7,7.2,3.7-0.3,11.9c-3.2,3.6-6.3,3.7-9.9,0.5c-1.6-1.4-1.8-1.3-2.7,1.1c-0.8,2.2-3.8,4.8-5.6,4.8C65,82.6,64.9,81.2,65,79.3
		L65,79.3z M15.1,44.4c-2.5-1.8-4.9-5.9-6.1-8.9l-2.1-5.3l0.4,4.4c0.2,2.4,0,4.1-0.5,3.8C6.3,35,5.3,34.6,3.9,33
		c-3.4-3.2-4.8-8.7-3.4-13.4C4,8.6,16.3,3.7,22.2,11.2c2.9,3.7,2.4,12.5-0.6,11.3c-0.5-0.2-1,1.7-1.2,4.3
		c-0.5,8.9,5.4,14.6,15.4,14.8c3.6,0.1,6.1-0.7,7.2,0.4c1.2,1.2,1.6,1.8,2.4,2.5C47,46,41,48,32.8,48c-5.8,0-8.4-0.5-12.2-2.4
		l-4.9-2.4c0.9,1.6,1.7,2.3,3.6,4.1C20,47.9,16.2,45.6,15.1,44.4L15.1,44.4z"/>
</g>
</svg>
