<?xml version="1.0" encoding="utf-8"?>
<!-- Generator: Adobe Illustrator 22.0.1, SVG Export Plug-In . SVG Version: 6.00 Build 0)  -->
<svg version="1.1"
	 id="svg8" inkscape:version="0.92.1 r15371" sodipodi:docname="rock.svg" xmlns:cc="http://creativecommons.org/ns#" xmlns:dc="http://purl.org/dc/elements/1.1/" xmlns:inkscape="http://www.inkscape.org/namespaces/inkscape" xmlns:rdf="http://www.w3.org/1999/02/22-rdf-syntax-ns#" xmlns:sodipodi="http://sodipodi.sourceforge.net/DTD/sodipodi-0.dtd" xmlns:svg="http://www.w3.org/2000/svg"
	 xmlns="http://www.w3.org/2000/svg" xmlns:xlink="http://www.w3.org/1999/xlink" x="0px" y="0px" viewBox="0 0 80.1 74.2"
	 style="enable-background:new 0 0 80.1 74.2;" xml:space="preserve">
<style type="text/css">
	.st0{fill:#0D0D0D;}
</style>
<sodipodi:namedview  bordercolor="#666666" borderopacity="1.0" id="base" inkscape:current-layer="layer1" inkscape:cx="435.93476" inkscape:cy="426.03243" inkscape:document-units="mm" inkscape:guide-bbox="true" inkscape:pageopacity="0.0" inkscape:pageshadow="2" inkscape:window-height="975" inkscape:window-maximized="0" inkscape:window-width="1269" inkscape:window-x="636" inkscape:window-y="8" inkscape:zoom="11.313709" pagecolor="#ffffff" showgrid="false" showguides="true">
	</sodipodi:namedview>
<g id="layer1" inkscape:groupmode="layer" inkscape:label="Layer 1">
	
		<path id="path4845" inkscape:connector-curvature="0" sodipodi:nodetypes="cccccccccsccsccccccccccccccccccccsccsccccscsccccccccccccccccccscccccccsssscssscccsccccscsssscscccscssssss" class="st0" d="
		M10.3,74l0-2.7l58.2,0.2l0,2.7L10.3,74z M12.7,65.4c-2.2-3.1-3.2-4.6-3.4-8.3c0.3-4.4,1.4-8.5,7.6-12.4c13-6.8,25.4,6,19.4,17.6
		c-2.6,5.1-6.1,7-12.8,7C17.8,69.2,15.3,67.9,12.7,65.4z M28.6,64.7c0.3-0.3-0.7-1.7-2.1-3.2L24,58.9l-0.3,0l-2.5,2.3
		c-3,2.8-3.1,3.7-0.8,4.4C22.4,66.1,27.7,65.5,28.6,64.7L28.6,64.7z M20.7,57c0-0.4-1.1-1.9-2.4-3.4c-2.1-2.4-2.6-2.6-3.5-1.3
		c-1.3,2-1.3,5.6,0.1,8.2c1.1,2,1.1,2,3.5-0.2c1.3-1.2,2.4-2.4,2.4-2.8L20.7,57z M33.7,56.3c0-1.4-0.4-3.2-0.9-4
		c-0.8-1.2-1.3-1.1-3.5,0.9c-3.1,2.9-3.2,3.8-0.3,6.8c2.1,2.2,2.3,2.3,3.5,0.6C33.1,59.6,33.7,57.7,33.7,56.3z M27.6,50.8
		c2.3-2.4,2.3-2.4,0.2-3.5c-1.1-0.6-3-0.9-4.2-0.9c-1.2,0-3,0.3-4.1,0.9c-2,1.1-2,1.1,0.2,3.5c1.2,1.3,3,2.4,3.9,2.4
		C24.6,53.2,26.4,52.2,27.6,50.8L27.6,50.8z M47.6,67c-3.5-2.9-4.8-5.8-4.8-10.2c0-7.8,5.5-13.4,13.8-13.7c4.1-0.2,5.6,0.3,8.6,2.5
		c6.9,5.3,7.2,15.5,0.6,21.1c-2.6,2.2-4.7,2.7-8.6,2.8C52.7,69.3,49.7,68.5,47.6,67L47.6,67z M61.6,64.7c0.3-0.3-0.7-1.8-2.3-3.1
		l-2.7-2.5l-0.3,0L54,61.7c-2.2,2.2-2.6,2.7-1.3,3.6C54.2,66.3,60.4,65.9,61.6,64.7L61.6,64.7z M51.5,54.2c-1.2-1.6-2.7-2.8-3.2-2.6
		c-1.6,0.5-1.9,7.6-0.4,9.4c1.1,1.4,1.5,1.2,3.6-1.1l2.3-2.7l0-0.2L51.5,54.2z M66.2,54.2c-0.8-3.5-1.2-3.6-4.2-0.8
		c-2.9,2.7-2.9,3.6-0.1,6.5l2,2.2l0.2,0l0.8-1.2l0.7-1.1C66.3,58.1,66.6,55.9,66.2,54.2L66.2,54.2z M59.8,50.7
		c2-2.2,2.2-2.7,0.9-3.5c-0.7-0.5-2.7-1-4.6-1c-2.1,0.1-4.1,0.8-4.6,1.4c-1,1.3,3.3,5.6,4.8,5.6C56.8,53.2,58.4,52.1,59.8,50.7
		L59.8,50.7z M4.3,37.1c-2.1-7.3-4-13.9-4.3-14.6c-0.4-1,7.9-1.2,39.6-1.2c22,0,40.3,0.4,40.6,0.9c0.4,0.7-5.7,19.6-8.4,26.3
		c-0.6,1.5,0.7,1.2-4.3-3.6c-4.6-3.4-8.3-4-11.8-3.7c-5,0.1-8,1.9-11.4,5.6l-3.7,3.8l-3.6-3.5c-4.1-4-7.5-5.9-13.8-6.1
		c-5.2,0.3-9,2.7-12.4,6.6l-2.5,3L4.3,37.1z M7.9,17.6c-0.8-1.1,4.4-4.4,5.3-3.6c0.4,0.4,2-0.8,3.6-2.7c2.7-3.2,3-3.3,4.7-1.7
		c1,0.9,2.1,1.7,2.4,1.7c0.3,0,2.2-2.5,4.3-5.6L31.9,0l8.2,0.4c9.3,0.5,15.1,3.2,16.2,7.4c0.7,2.9,0.5,2.8,5,0.9
		c2-0.8,3.9-1.5,4.4-1.5c0.7,0,6,8.2,6,9.4c0,0.3-14.2,0.6-31.5,0.6C20.6,17.2,7.9,17.6,7.9,17.6L7.9,17.6z"/>
</g>
</svg>
