<?xml version="1.0" encoding="UTF-8" standalone="no"?>
<!-- Created with Inkscape (http://www.inkscape.org/) -->

<svg
   xmlns:dc="http://purl.org/dc/elements/1.1/"
   xmlns:cc="http://creativecommons.org/ns#"
   xmlns:rdf="http://www.w3.org/1999/02/22-rdf-syntax-ns#"
   xmlns:svg="http://www.w3.org/2000/svg"
   xmlns="http://www.w3.org/2000/svg"
   xmlns:sodipodi="http://sodipodi.sourceforge.net/DTD/sodipodi-0.dtd"
   xmlns:inkscape="http://www.inkscape.org/namespaces/inkscape"
   width="210mm"
   height="297mm"
   viewBox="0 0 210 297"
   version="1.1"
   id="svg8"
   inkscape:version="0.92.1 r15371"
   sodipodi:docname="craft.svg">
  <defs
     id="defs2" />
  <sodipodi:namedview
     id="base"
     pagecolor="#ffffff"
     bordercolor="#666666"
     borderopacity="1.0"
     inkscape:pageopacity="0.0"
     inkscape:pageshadow="2"
     inkscape:zoom="2"
     inkscape:cx="319.15364"
     inkscape:cy="577.93442"
     inkscape:document-units="mm"
     inkscape:current-layer="layer1"
     showgrid="false"
     showguides="true"
     inkscape:guide-bbox="true"
     inkscape:window-width="1920"
     inkscape:window-height="1018"
     inkscape:window-x="-8"
     inkscape:window-y="-8"
     inkscape:window-maximized="1">
    <sodipodi:guide
       position="99.531169,145.32113"
       orientation="1,0"
       id="guide4530"
       inkscape:locked="false" />
    <sodipodi:guide
       position="100.20937,142.81882"
       orientation="0,1"
       id="guide4532"
       inkscape:locked="false" />
  </sodipodi:namedview>
  <metadata
     id="metadata5">
    <rdf:RDF>
      <cc:Work
         rdf:about="">
        <dc:format>image/svg+xml</dc:format>
        <dc:type
           rdf:resource="http://purl.org/dc/dcmitype/StillImage" />
        <dc:title></dc:title>
      </cc:Work>
    </rdf:RDF>
  </metadata>
  <g
     inkscape:label="Layer 1"
     inkscape:groupmode="layer"
     id="layer1">
    <path
       style="fill:#070707;stroke-width:0.35277778"
       d="m 81.812817,173.22876 c -1.107167,-0.60065 -1.442944,-2.21542 -0.352778,-1.69652 0.339549,0.16161 1.490486,0.29384 2.557639,0.29384 1.067153,0 2.218091,-0.13223 2.557639,-0.29384 0.488022,-0.23229 0.617361,-0.13436 0.617361,0.46745 0,1.48579 -3.45268,2.27458 -5.379861,1.22907 z m 0.176389,-2.4224 c -1.784694,-0.80439 -1.488514,-1.44409 0.923554,-1.99473 1.515968,-0.34606 3.92714,0.19739 3.92714,0.88514 0,1.30035 -2.936915,1.97216 -4.850694,1.10959 z m 7.045856,-0.39443 c -0.431227,-0.30205 -0.78405,-0.86837 -0.78405,-1.2585 0,-0.58585 0.138171,-0.65913 0.79375,-0.42097 1.019297,0.37029 4.137242,0.35499 4.938889,-0.0242 0.505555,-0.23916 0.617361,-0.12391 0.617361,0.63637 0,0.672 -0.249933,1.02344 -0.904911,1.27247 -1.365707,0.51924 -3.778457,0.41306 -4.661039,-0.20513 z m 23.645808,0.18539 c -0.53777,-0.21615 -0.79375,-0.6148 -0.79375,-1.23613 0,-0.80131 0.10021,-0.88068 0.79375,-0.62873 0.99163,0.36024 3.77749,0.35482 4.54059,-0.009 0.96001,-0.45751 1.20214,0.88053 0.29261,1.61702 -0.83279,0.67436 -3.44848,0.81327 -4.8332,0.25668 z m -22.676066,-2.33381 c -0.296594,-0.0805 -0.730938,-0.45321 -0.965207,-0.82834 -0.384039,-0.61494 -0.290949,-0.72249 0.946206,-1.09315 1.550696,-0.4646 3.633738,-0.1954 4.251946,0.5495 0.791725,0.95397 -2.199738,1.92357 -4.232945,1.37199 z m 22.810246,-0.34853 c -0.89443,-0.48455 -0.95145,-0.60933 -0.48951,-1.07127 1.13864,-1.13864 5.84796,-0.81641 5.45605,0.37333 -0.39674,1.20438 -3.28299,1.60998 -4.96654,0.69794 z m -15.127233,-0.20039 c -1.227084,-0.32591 -1.322916,-0.44593 -1.322916,-1.65687 0,-0.71803 -0.1905,-1.49601 -0.423334,-1.72885 -0.520135,-0.52013 -2.028828,-0.54656 -3.313711,-0.0581 -0.832508,0.31652 -1.094571,0.23707 -1.963244,-0.59517 -1.161344,-1.11264 -1.271188,-1.75395 -0.35047,-2.04617 1.048609,-0.33282 1.514979,-1.72843 0.88036,-2.63447 -0.376656,-0.53775 -0.462863,-1.16718 -0.295519,-2.15768 0.227349,-1.34567 0.287414,-1.39846 1.591172,-1.39846 1.654962,0 2.600791,-0.81661 2.306042,-1.99099 -0.237035,-0.94442 0.03327,-1.00881 1.973057,-0.47001 0.918835,0.25521 1.348367,0.60459 1.503575,1.22299 0.515553,2.05412 3.150901,3.04872 4.138191,1.56178 l 0.48774,-0.73457 0.9664,0.76017 c 0.53152,0.4181 0.9644,0.86772 0.96194,0.99915 -0.002,0.13144 -0.88408,1.33178 -1.95916,2.66742 -2.44692,3.03995 -2.47302,3.90538 -0.15304,5.07399 1.80294,0.90816 2.00723,1.20506 1.25735,1.8274 -0.43245,0.35891 -0.69855,0.30733 -1.44539,-0.28013 -1.20219,-0.94564 -2.32984,-0.55094 -2.719243,0.9518 -0.158338,0.61105 -0.402414,1.0946 -0.542386,1.07454 -0.139975,-0.02 -0.84981,-0.19457 -1.577414,-0.38782 z m 7.962493,-2.86051 c -1.97504,-0.61871 -3.71433,-1.25026 -3.86509,-1.40344 -0.3098,-0.31479 0.87731,-2.7201 1.34247,-2.7201 0.47247,0 5.18012,1.33762 5.58218,1.58611 0.37675,0.23284 1.76614,2.92254 1.76614,3.41904 0,0.48681 -1.09748,0.28631 -4.8257,-0.88161 z m 4.78334,-1.65637 c -0.23291,-0.77736 -0.35834,-1.46257 -0.27875,-1.52269 0.0796,-0.0601 2.17346,-1.88471 4.65303,-4.05467 2.47957,-2.16995 4.64514,-3.94537 4.81239,-3.94537 0.16724,0 0.56807,0.65979 0.89073,1.46619 l 0.58665,1.46618 -1.82009,1.59217 c -4.2505,3.71824 -7.59577,6.3986 -7.99369,6.40486 -0.23475,0.004 -0.61737,-0.62931 -0.85027,-1.40667 z m -3.93566,-2.64092 c -3.01689,-0.82977 -2.96362,-0.72231 -1.2714,-2.56484 1.33951,-1.45847 7.57668,-7.15359 7.80952,-7.1308 0.55358,0.0542 5.49936,1.6326 5.59768,1.78646 0.21783,0.34089 -9.33666,8.43837 -9.91635,8.40416 -0.29397,-0.0173 -1.29272,-0.24009 -2.21945,-0.49498 z m -6.966821,-6.37561 c -0.189226,-0.49769 -0.344046,-1.01544 -0.344046,-1.15053 0,-0.1351 2.588717,-2.83078 5.752717,-5.99042 l 5.75271,-5.74479 0.95229,0.74908 c 2.1935,1.7254 2.19097,1.73112 -3.16009,7.12703 -2.68835,2.71088 -5.39875,5.15065 -6.0231,5.42171 -1.70622,0.74074 -2.536576,0.62398 -2.930481,-0.41208 z m -28.213491,-1.28203 c 0,-1.11007 2.457895,-7.5836 4.527413,-11.92417 2.850002,-5.97754 4.245299,-7.33314 10.465643,-10.16792 4.11432,-1.875 10.613778,-4.29597 11.533198,-4.29597 0.1937,0 -1.290154,1.0828 -3.297453,2.40622 -8.634423,5.6927 -16.568403,13.746 -21.629383,21.95466 -0.87968,1.4268 -1.599418,2.33903 -1.599418,2.02718 z m 25.047223,-1.39002 c -0.48507,-0.19648 -1.374617,-0.27955 -1.97677,-0.1846 -1.004542,0.15841 -1.406834,-0.14033 -4.878471,-3.62277 l -3.783647,-3.79541 1.21596,-1.2893 c 0.668778,-0.70911 1.43534,-1.28529 1.703471,-1.28039 0.736431,0.0134 10.312772,9.73583 10.03395,10.18697 -0.29048,0.47 -1.131365,0.46474 -2.314493,-0.0145 z m 24.006909,-7.4064 c -3.4664,-5.99904 -10.0198,-9.93402 -15.57697,-9.35318 l -2.1646,0.22624 0.1493,-2.02749 c 0.41085,-5.57934 5.5587,-10.94724 11.13143,-11.60725 l 1.80471,-0.21374 0.37102,1.36898 c 0.91029,3.35879 5.37136,9.26313 9.98593,13.21665 1.41429,1.21169 2.6112,2.29626 2.6598,2.41015 0.0486,0.1139 -0.6372,0.592 -1.52401,1.06245 -1.96906,1.04459 -4.20601,3.51436 -4.76304,5.25876 -0.22711,0.71125 -0.51282,1.39913 -0.6349,1.52863 -0.12208,0.1295 -0.76948,-0.71209 -1.43867,-1.8702 z m -7.55193,-2.1407 -1.36031,-1.42968 1.22254,-1.22254 1.22254,-1.22254 1.28429,1.12762 c 0.70636,0.6202 1.28429,1.31817 1.28429,1.55105 0,0.23288 -0.51594,0.91894 -1.14653,1.52459 l -1.14652,1.10118 z m -29.138282,-0.0879 -1.180042,-1.2175 1.25195,-1.25195 c 0.688572,-0.68857 1.476249,-1.25195 1.750393,-1.25195 0.274144,0 0.955966,0.47755 1.515161,1.06123 l 1.016718,1.06122 -1.37509,1.40822 c -0.756299,0.77452 -1.47048,1.40822 -1.587069,1.40822 -0.116588,0 -0.742998,-0.54787 -1.392021,-1.21749 z m -5.791164,-6.4686 c -0.08729,-0.14123 -0.271625,-0.85871 -0.409642,-1.59441 -0.249847,-1.3318 -0.24653,-1.33657 0.761723,-1.09623 1.822969,0.43454 1.900935,0.60617 0.822841,1.81138 -0.55892,0.62483 -1.087636,1.0205 -1.174922,0.87926 z m 45.467716,-3.59679 c -0.55696,-0.58134 -0.94485,-1.12386 -0.86198,-1.20559 0.0829,-0.0817 0.76319,-0.26303 1.51182,-0.40289 l 1.36114,-0.25428 -0.25178,1.19296 c -0.36796,1.74341 -0.63368,1.84458 -1.7592,0.6698 z"
       id="path4642"
       inkscape:connector-curvature="0" />
  </g>
</svg>
