<?xml version="1.0" encoding="UTF-8" standalone="no"?>
<!-- Created with Inkscape (http://www.inkscape.org/) -->

<svg
   xmlns:dc="http://purl.org/dc/elements/1.1/"
   xmlns:cc="http://creativecommons.org/ns#"
   xmlns:rdf="http://www.w3.org/1999/02/22-rdf-syntax-ns#"
   xmlns:svg="http://www.w3.org/2000/svg"
   xmlns="http://www.w3.org/2000/svg"
   xmlns:sodipodi="http://sodipodi.sourceforge.net/DTD/sodipodi-0.dtd"
   xmlns:inkscape="http://www.inkscape.org/namespaces/inkscape"
   width="210mm"
   height="297mm"
   viewBox="0 0 210 297"
   version="1.1"
   id="svg8"
   inkscape:version="0.92.1 r15371"
   sodipodi:docname="figth.svg">
  <defs
     id="defs2" />
  <sodipodi:namedview
     id="base"
     pagecolor="#ffffff"
     bordercolor="#666666"
     borderopacity="1.0"
     inkscape:pageopacity="0.0"
     inkscape:pageshadow="2"
     inkscape:zoom="2.8284271"
     inkscape:cx="317.4534"
     inkscape:cy="601.31592"
     inkscape:document-units="mm"
     inkscape:current-layer="layer1"
     showgrid="false"
     showguides="true"
     inkscape:guide-bbox="true"
     inkscape:window-width="1920"
     inkscape:window-height="1018"
     inkscape:window-x="-8"
     inkscape:window-y="-8"
     inkscape:window-maximized="1">
    <sodipodi:guide
       position="99.531169,145.32113"
       orientation="1,0"
       id="guide4530"
       inkscape:locked="false" />
    <sodipodi:guide
       position="100.20937,142.81882"
       orientation="0,1"
       id="guide4532"
       inkscape:locked="false" />
  </sodipodi:namedview>
  <metadata
     id="metadata5">
    <rdf:RDF>
      <cc:Work
         rdf:about="">
        <dc:format>image/svg+xml</dc:format>
        <dc:type
           rdf:resource="http://purl.org/dc/dcmitype/StillImage" />
        <dc:title></dc:title>
      </cc:Work>
    </rdf:RDF>
  </metadata>
  <g
     inkscape:label="Layer 1"
     inkscape:groupmode="layer"
     id="layer1">
    <path
       style="fill:#090909;stroke-width:0.35277778"
       d="m 78.23569,166.78137 c -0.918615,-0.72038 -0.827165,-1.0373 -0.92952,-1.69369 -0.198782,-1.27475 0.241388,-2.02603 1.519616,-2.63259 0.284253,-0.13488 0.68543,-0.17607 1.022551,-0.10054 0.30526,0.0684 0.785101,-0.53047 0.785101,-0.53047 0.135137,0.15909 0.241327,0.33779 0.683806,0.66494 0.305703,0.22601 0.863336,0.4728 0.863336,0.4728 -0.09967,0.23369 -0.305572,0.53394 -0.197046,0.68832 0.333126,0.47388 0.339745,0.56599 0.39644,1.05966 0.0054,1.15058 -0.67242,2.09602 -1.43464,2.43848 -0.73026,0.3281 -2.082317,0.12504 -2.709644,-0.36691 z m 4.873896,-3.83717 c -0.591664,-0.17199 -1.988273,-1.20364 -3.103576,-2.29255 -1.24286,-1.21345 -2.2259,-1.90383 -2.53952,-1.78348 -0.300388,0.11527 -0.738178,-0.1493 -1.060142,-0.64068 -0.496545,-0.75783 -0.670434,-0.80336 -1.837456,-0.48113 -1.141283,0.31513 -1.361518,0.26637 -1.921699,-0.42542 -0.88244,-1.08977 -0.809405,-1.63076 0.647819,-4.79864 1.519778,-3.30385 2.465921,-4.72398 3.147293,-4.72398 0.274561,0 0.888904,0.76904 1.365206,1.70898 0.867371,1.71167 2.164552,2.87713 3.202311,2.87713 0.304412,0 0.883723,0.55973 1.287358,1.24384 0.791133,1.34087 1.617619,1.93116 2.70388,1.93116 0.377145,0 0.93488,0.35719 1.239412,0.79375 0.48447,0.69452 0.678779,0.59056 0.694972,0.0277 -0.01922,-0.16665 -0.119109,-0.29124 0.354356,-0.46129 0.517859,-0.186 0.770369,0.27998 1.059006,0.73838 0.577808,0.91763 0.03828,1.72364 -1.153788,1.72364 -0.588172,0 -1.069404,0.15875 -1.069404,0.35278 0,0.19403 0.41234,0.62078 0.671774,0.27565 0.203339,-0.27051 0.838141,-0.0181 0.838141,-0.0181 -0.242137,0.91652 -1.057597,1.52236 -1.641589,1.29826 -0.275661,-0.0679 -0.621803,0.0451 -0.520138,0.23231 0.104385,0.19227 0.423153,0.52174 0.711738,0.12254 0.150614,-0.20834 0.794816,-0.0268 0.794816,-0.0268 -0.260754,0.88804 -0.664639,1.16653 -1.413012,1.30463 -0.74508,0.12434 -0.608422,0.23814 -0.114291,0.46276 0.122385,-0.13059 0.582391,-0.22681 0.815787,-0.0809 0.06043,0.0378 -0.153676,0.4059 -0.201586,0.49865 -0.27202,0.44013 -1.443941,0.58076 -2.957668,0.14074 z m 9.507123,-3.06864 c -0.21345,-0.14256 -0.54319,-0.73544 -0.73276,-1.31752 -0.25195,-0.77356 -0.59841,-1.08837 -1.28762,-1.16996 -0.519314,-0.0615 -0.942937,-0.33326 -0.942937,-0.60495 0,-0.67245 -1.127788,-1.2237 -2.503561,-1.2237 -1.230697,0 -4.238046,-1.72556 -5.065001,-2.90621 -0.270655,-0.38641 -0.405087,-0.92932 -0.298737,-1.20646 0.0733,-0.19103 0.226462,-0.5697 0.424845,-0.44785 0.664108,0.4079 0.49243,0.44147 0.506623,0.71296 0.219223,0.1815 0.679717,0.47945 0.257221,-0.32515 -0.237202,-0.45172 -0.329827,-1.08568 -0.205833,-1.40881 0.114517,-0.29842 0.280782,-0.44203 0.454844,-0.32564 0.121277,0.0811 0.482018,0.32986 0.446421,0.6178 0.737839,0.96036 0.939234,0.73756 0.283058,-0.31314 -0.431478,-0.69091 -0.200811,-1.80584 0.373609,-1.80584 0.187042,0 0.610783,0.61202 0.610783,0.61202 -0.04334,0.34094 0.369419,0.70556 0.547233,0.70556 0.177814,0 0.01081,-0.46368 -0.313959,-1.14472 -0.463981,-0.97298 -0.498466,-1.33027 -0.16097,-1.66777 0.434188,-0.43418 0.942463,-0.32276 1.516029,0.56745 0,0 -0.09646,0.20454 0.09507,0.57627 0.321751,1.36296 2.949746,2.87731 4.476627,2.15109 0.51024,-0.24268 1.907253,0.39444 2.686953,0.94964 0.86135,0.61334 1.58597,0.77824 3.41973,0.77824 h 2.32679 v 1.19852 c 0,0.88343 -0.39417,1.68693 -1.4993,3.05628 -3.22655,3.99792 -4.23361,4.731 -5.41516,3.94189 z m 0.0813,-10.15796 c -0.7508,-0.27524 -1.72589,-0.40989 -2.16687,-0.29921 -1.126398,0.28271 -2.994423,-0.755 -2.994423,-1.66344 0,-0.43265 -0.737246,-1.39364 -1.807087,-2.35552 -1.867498,-1.67904 -2.96703,-3.67838 -3.354089,-6.09892 -0.269506,-1.68539 0.192329,-1.59631 1.684277,-0.31282 0.86708,0.69251 0.686832,0.53686 1.159955,0.97742 0.226029,0.21047 0.289535,0.91782 0.3424,1.20842 0.305443,1.67907 2.556567,4.21423 3.049754,3.43456 0.589735,-0.9323 0.351352,-2.03134 -0.589206,-2.71648 -0.561571,-0.44658 -0.747487,-1.61032 0.43394,-2.72688 0,0 0.693875,0.52156 1.086184,0.27192 0.95845,-0.56983 1.494845,-1.85472 2.108835,-2.67341 1.58552,-2.11412 5.49269,-8.39129 8.941311,-14.36492 1.6242,-2.81341 3.42381,-5.70828 3.99915,-6.43306 1.30498,-1.64394 4.61675,-3.96277 5.1707,-3.62041 0.48579,0.30023 0.1629,3.85542 -0.528,5.81364 -0.24144,0.68432 -1.97368,3.94229 -3.84943,7.23994 -1.87574,3.29764 -4.55561,8.26809 -5.955261,11.04542 -2.26137,4.48724 -2.863354,5.18083 -3.335408,6.18513 -0.09947,0.15478 -0.177756,0.36683 -0.200505,0.58818 -0.03709,0.36093 0.719795,0.65747 0.719795,0.65747 0.240262,-0.1969 -0.99552,2.23699 -2.017248,1.85528 -1.11262,-0.46488 -1.085714,-0.34699 -1.757284,0.37385 -0.46569,0.49986 -0.59948,0.89452 -0.37826,1.11575 0.51814,0.51814 4.04654,0.71129 4.87678,0.26696 0.903616,-0.33397 1.063493,-0.25188 1.44673,-0.15771 0.277911,0.0683 0.301498,0.0679 0.989658,0.42137 0.899783,0.38569 1.469453,0.90394 1.351683,1.0945 -0.34776,0.56269 -3.710081,1.42513 -5.451321,1.39827 -0.88642,-0.0137 -2.22596,-0.25005 -2.97676,-0.5253 z"
       id="path4668"
       inkscape:connector-curvature="0"
       sodipodi:nodetypes="sscsscsscsscscccccscsssccscsssscsssccscccccsscccscccscsssccsccsscscccccsccscscscsssccsscssccccscccccc" />
  </g>
</svg>
