<?xml version="1.0" encoding="utf-8"?>
<!-- Generator: Adobe Illustrator 22.0.1, SVG Export Plug-In . SVG Version: 6.00 Build 0)  -->
<svg version="1.1"
	 id="svg8" inkscape:version="0.92.1 r15371" sodipodi:docname="craft.svg" xmlns:cc="http://creativecommons.org/ns#" xmlns:dc="http://purl.org/dc/elements/1.1/" xmlns:inkscape="http://www.inkscape.org/namespaces/inkscape" xmlns:rdf="http://www.w3.org/1999/02/22-rdf-syntax-ns#" xmlns:sodipodi="http://sodipodi.sourceforge.net/DTD/sodipodi-0.dtd" xmlns:svg="http://www.w3.org/2000/svg"
	 xmlns="http://www.w3.org/2000/svg" xmlns:xlink="http://www.w3.org/1999/xlink" x="0px" y="0px" viewBox="0 0 165 149.5"
	 style="enable-background:new 0 0 165 149.5;" xml:space="preserve">
<style type="text/css">
	.st0{fill:#070707;}
</style>
<g id="layer1" inkscape:groupmode="layer" inkscape:label="Layer 1">
	<path id="path4642" inkscape:connector-curvature="0" class="st0" d="M30.1,148.1c-3.2-1.7-4.1-6.4-1.1-4.8
		c1.1,0.5,4.2,0.8,7.4,0.8s6.4-0.4,7.4-0.8c1.4-0.7,1.8-0.4,1.8,1.4C45.6,148.9,35.7,151.1,30.1,148.1L30.1,148.1z M30.6,141.3
		c-5.2-2.3-4.2-4.1,2.6-5.7c4.3-1,11.3,0.6,11.3,2.5C44.6,141.7,36.1,143.7,30.6,141.3z M50.9,140.1c-1.3-0.9-2.2-2.5-2.2-3.6
		c0-1.7,0.4-1.9,2.3-1.2c2.9,1,11.9,1,14.2-0.1c1.4-0.7,1.8-0.4,1.8,1.8c0,1.9-0.7,2.9-2.6,3.6C60.3,142.1,53.5,141.8,50.9,140.1
		L50.9,140.1z M118.9,140.7c-1.5-0.6-2.2-1.7-2.2-3.5c0-2.3,0.3-2.5,2.2-1.8c2.8,1,10.8,1,13.1,0c2.7-1.4,3.5,2.5,0.8,4.6
		C130.5,141.8,122.8,142.2,118.9,140.7L118.9,140.7z M53.6,134c-0.8-0.2-2.1-1.4-2.7-2.3c-1.2-1.7-0.8-2,2.7-3.1
		c4.4-1.4,10.4-0.6,12.3,1.6C68.1,132.8,59.5,135.6,53.6,134L53.6,134z M119.3,133.1c-2.5-1.4-2.7-1.7-1.4-3
		c3.3-3.2,16.8-2.3,15.7,1.1C132.4,134.4,124.1,135.7,119.3,133.1z M75.7,132.4c-3.6-0.9-3.8-1.4-3.8-4.7c0-2-0.5-4.2-1.3-4.9
		c-1.5-1.5-5.9-1.5-9.6-0.2c-2.4,0.9-3.2,0.7-5.7-1.7c-3.4-3.2-3.7-5-1.1-5.8c3.1-0.9,4.3-4.9,2.5-7.5c-1.2-1.5-1.4-3.3-0.8-6.1
		c0.6-3.9,0.8-4.1,4.5-4.1c4.7,0,7.5-2.3,6.6-5.6c-0.7-2.7,0.1-2.9,5.7-1.4c2.6,0.7,3.9,1.7,4.3,3.5c1.5,5.8,9.1,8.6,11.9,4.4
		l1.4-2.1l2.7,2.2c1.5,1.2,2.7,2.5,2.7,2.8c0,0.4-2.5,3.9-5.7,7.6c-7,8.6-7.1,11.1-0.4,14.5c5.2,2.6,5.8,3.4,3.7,5.2
		c-1.3,1-2,0.9-4.1-0.8c-3.5-2.7-6.7-1.6-7.8,2.7c-0.4,1.7-1.2,3.1-1.5,3C79.9,133.5,77.9,133.1,75.7,132.4L75.7,132.4z M98.7,124.3
		c-5.7-1.8-10.6-3.5-11.2-4.1c-0.9-0.9,2.5-7.7,3.9-7.7c1.4,0,14.9,3.9,16,4.5c1.2,0.7,5.1,8.3,5.1,9.7
		C112.6,128.2,109.3,127.6,98.7,124.3L98.7,124.3z M112.3,119.6c-0.7-2.2-1.1-4.1-0.8-4.3c0.2-0.2,6.3-5.3,13.4-11.6
		c7.1-6.3,13.4-11.3,13.8-11.3c0.5,0,1.6,1.9,2.5,4.2l1.7,4.2l-5.3,4.5c-12.2,10.5-21.8,18.1-23.1,18.2
		C114.1,123.6,113.1,121.8,112.3,119.6L112.3,119.6z M101.1,112c-8.7-2.4-8.5-2-3.7-7.3c3.9-4.1,21.8-20.4,22.4-20.3
		c1.6,0.2,15.8,4.6,16.1,5.1c0.6,1-26.9,24-28.5,23.9C106.6,113.5,103.7,112.7,101.1,112L101.1,112z M81.1,93.9
		C80.6,92.4,80,91,80,90.6s7.4-8,16.5-17.1L113,57.1l2.7,2.1c6.3,4.9,6.3,4.9-9.2,20.3C98.8,87.2,91,94.2,89.2,94.9
		C84.6,97.2,82.2,96.9,81.1,93.9z M0,90.2c0-3.1,7.1-21.6,13-34c8.2-17,12.2-20.8,30.1-28.9C55,22.1,73.6,15.1,76.2,15.1
		c0.5,0-3.8,3.1-9.5,6.9C42,38.1,19.2,61.2,4.6,84.4C2,88.6,0,91.2,0,90.2L0,90.2z M72,86.4c-1.4-0.6-4-0.8-5.7-0.5
		c-2.8,0.4-4.1-0.4-14-10.3L41.4,64.6l3.5-3.7c1.9-2,4.1-3.6,4.8-3.6c2.1,0,29.6,27.7,28.8,29C77.8,87.6,75.4,87.6,72,86.4L72,86.4z
		 M141,65.2C131,48.1,112.1,37,96.1,38.7l-6.2,0.6l0.4-5.7c1.3-15.8,16-31.2,32-33l5.2-0.6l1.2,4c2.6,9.6,15.4,26.4,28.7,37.6
		c4.1,3.4,7.5,6.6,7.6,6.9c0.1,0.3-1.8,1.7-4.3,3c-5.7,3-12.1,10-13.7,15c-0.6,2-1.5,4.1-1.8,4.3C144.7,70.9,142.9,68.6,141,65.2
		L141,65.2z M119.3,59.1l-4-4.1l3.6-3.5l3.6-3.5l3.7,3.2c2,1.8,3.7,3.7,3.7,4.4c0,0.7-1.5,2.6-3.4,4.3l-3.3,3.1L119.3,59.1z
		 M35.5,59l-3.4-3.5l3.6-3.5c2-2,4.2-3.5,5.1-3.5s2.7,1.4,4.3,3l2.9,3l-4,4.1c-2.1,2.2-4.2,4.1-4.5,4.1S37.3,60.9,35.5,59L35.5,59z
		 M18.8,40.4C18.6,40,18,38,17.6,35.9c-0.7-3.9-0.7-3.9,2.2-3.1c5.3,1.2,5.5,1.7,2.3,5.1C20.6,39.8,19.1,40.8,18.8,40.4z
		 M149.6,30.2c-1.6-1.6-2.7-3.2-2.4-3.4c0.2-0.2,2.2-0.7,4.3-1.1l4-0.7l-0.7,3.4C153.5,33.3,152.8,33.7,149.6,30.2z"/>
</g>
<sodipodi:namedview  bordercolor="#666666" borderopacity="1.0" id="base" inkscape:current-layer="layer1" inkscape:cx="319.15364" inkscape:cy="577.93442" inkscape:document-units="mm" inkscape:guide-bbox="true" inkscape:pageopacity="0.0" inkscape:pageshadow="2" inkscape:window-height="1018" inkscape:window-maximized="1" inkscape:window-width="1920" inkscape:window-x="-8" inkscape:window-y="-8" inkscape:zoom="2" pagecolor="#ffffff" showgrid="false" showguides="true">
	<sodipodi:guide  id="guide4530" inkscape:locked="false" orientation="1,0" position="99.531169,145.32113"></sodipodi:guide>
	<sodipodi:guide  id="guide4532" inkscape:locked="false" orientation="0,1" position="100.20937,142.81882"></sodipodi:guide>
</sodipodi:namedview>
</svg>
