<!-- Generated by IcoMoon.io -->
<svg version="1.1" xmlns="http://www.w3.org/2000/svg" width="99" height="91" viewBox="0 0 99 91">
<title></title>
<g id="icomoon-ignore">
</g>
<path fill="#000" d="M18.093 89.818c-1.908-1.035-2.488-3.82-0.608-2.924 0.586 0.278 2.57 0.506 4.409 0.506s3.824-0.228 4.409-0.506c0.841-0.4 1.064-0.232 1.064 0.806 0 2.561-5.951 3.921-9.275 2.119zM18.395 85.642c-3.076-1.386-2.566-2.49 1.592-3.439 2.614-0.597 6.77 0.341 6.77 1.526 0 2.242-5.063 3.4-8.362 1.913zM30.543 84.962c-0.744-0.52-1.352-1.497-1.352-2.169 0-1.010 0.238-1.137 1.369-0.725 1.756 0.638 7.132 0.612 8.513-0.041 0.872-0.412 1.064-0.213 1.064 1.097 0 1.159-0.431 1.764-1.56 2.194-2.355 0.895-6.514 0.712-8.035-0.353zM71.305 85.281c-0.927-0.373-1.368-1.061-1.368-2.13 0-1.382 0.173-1.518 1.368-1.085 1.71 0.621 6.512 0.612 7.828-0.016 1.654-0.788 2.073 1.518 0.504 2.787-1.435 1.162-5.945 1.402-8.332 0.443zM32.215 81.258c-0.512-0.139-1.259-0.781-1.664-1.428-0.663-1.061-0.502-1.246 1.63-1.884 2.673-0.8 6.264-0.337 7.33 0.948 1.365 1.644-3.792 3.317-7.297 2.365zM71.537 80.657c-1.542-0.835-1.64-1.050-0.844-1.847 1.963-1.963 10.082-1.407 9.406 0.644-0.684 2.076-5.659 2.775-8.563 1.204zM45.459 80.312c-2.115-0.562-2.281-0.768-2.281-2.856 0-1.238-0.328-2.579-0.73-2.981-0.897-0.897-3.498-0.942-5.713-0.1-1.435 0.546-1.888 0.409-3.385-1.026-2.002-1.918-2.192-3.023-0.605-3.528 1.807-0.574 2.611-2.98 1.518-4.541-0.649-0.927-0.798-2.011-0.51-3.719 0.392-2.32 0.495-2.412 2.743-2.412 2.853 0 4.483-1.408 3.975-3.432-0.409-1.629 0.057-1.739 3.401-0.81 1.584 0.44 2.325 1.042 2.592 2.108 0.889 3.541 5.432 5.255 7.134 2.693l0.841-1.267 1.666 1.31c0.916 0.721 1.663 1.496 1.659 1.722s-1.524 2.296-3.377 4.598c-4.218 5.24-4.264 6.733-0.264 8.747 3.108 1.566 3.461 2.078 2.168 3.151-0.746 0.618-1.204 0.53-2.492-0.483-2.073-1.63-4.017-0.95-4.688 1.641-0.273 1.053-0.693 1.888-0.935 1.853s-1.465-0.335-2.72-0.668zM59.185 75.38c-3.405-1.067-6.403-2.156-6.663-2.42-0.534-0.543 1.513-4.689 2.315-4.689 0.815 0 8.93 2.306 9.622 2.734 0.649 0.402 3.044 5.038 3.044 5.894 0 0.84-1.892 0.494-8.319-1.52zM67.431 72.525c-0.402-1.34-0.618-2.522-0.481-2.626s3.747-3.249 8.022-6.99c4.275-3.742 8.008-6.802 8.296-6.802s0.979 1.138 1.535 2.527l1.011 2.527-3.138 2.745c-7.328 6.41-13.094 11.031-13.781 11.041-0.404 0.007-1.064-1.085-1.466-2.425zM60.647 67.972c-5.201-1.43-5.109-1.245-2.192-4.422 2.309-2.515 13.062-12.333 13.463-12.293 0.954 0.093 9.48 2.815 9.65 3.080 0.376 0.587-16.096 14.547-17.096 14.488-0.507-0.030-2.229-0.414-3.827-0.853zM48.637 56.982c-0.326-0.858-0.593-1.751-0.593-1.984s4.462-4.88 9.917-10.327l9.917-9.903 1.641 1.291c3.781 2.974 3.777 2.984-5.448 12.287-4.635 4.673-9.307 8.879-10.383 9.347-2.941 1.276-4.373 1.076-5.052-0.71zM0 54.771c0-1.913 4.237-13.073 7.805-20.556 4.913-10.305 7.319-12.642 18.042-17.529 7.093-3.233 18.297-7.406 19.882-7.406 0.334 0-2.224 1.867-5.684 4.148-14.885 9.813-28.563 23.697-37.288 37.849-1.516 2.459-2.756 4.032-2.756 3.495zM43.178 52.374c-0.836-0.339-2.37-0.483-3.408-0.318-1.731 0.273-2.425-0.242-8.41-6.245l-6.523-6.543 2.096-2.223c1.153-1.222 2.474-2.215 2.937-2.207 1.27 0.023 17.778 16.784 17.298 17.562-0.501 0.81-1.95 0.8-3.99-0.025zM84.564 39.607c-5.975-10.342-17.273-17.125-26.853-16.124l-3.731 0.39 0.258-3.495c0.709-9.619 9.583-18.872 19.19-20.009l3.111-0.368 0.639 2.361c1.57 5.79 9.26 15.97 17.215 22.785 2.439 2.089 4.502 3.959 4.585 4.155s-1.098 1.020-2.627 1.831c-3.394 1.801-7.251 6.058-8.21 9.066-0.392 1.225-0.884 2.412-1.094 2.635s-1.326-1.227-2.48-3.224zM71.546 35.916l-2.345-2.465 4.215-4.215 2.214 1.944c1.217 1.069 2.214 2.272 2.214 2.674s-0.889 1.584-1.976 2.627l-1.976 1.899zM21.313 35.765l-2.034-2.099 2.158-2.158c1.187-1.187 2.545-2.158 3.017-2.158s1.648 0.824 2.612 1.829l1.753 1.829-2.37 2.428c-1.304 1.334-2.535 2.428-2.736 2.428s-1.282-0.944-2.399-2.099zM11.331 24.614c-0.15-0.244-0.469-1.481-0.707-2.748-0.431-2.296-0.425-2.304 1.313-1.89 3.143 0.749 3.277 1.045 1.418 3.122-0.963 1.078-1.875 1.759-2.026 1.517zM89.713 18.414c-0.96-1.003-1.629-1.938-1.486-2.078s1.316-0.454 2.606-0.695l2.347-0.438-0.434 2.057c-0.635 3.006-1.093 3.18-3.032 1.154z"></path>
</svg>
