<?xml version="1.0" encoding="utf-8"?>
<!-- Generator: Adobe Illustrator 22.0.1, SVG Export Plug-In . SVG Version: 6.00 Build 0)  -->
<svg version="1.1"
	 id="svg8" inkscape:version="0.92.1 r15371" sodipodi:docname="war.svg" xmlns:cc="http://creativecommons.org/ns#" xmlns:dc="http://purl.org/dc/elements/1.1/" xmlns:inkscape="http://www.inkscape.org/namespaces/inkscape" xmlns:rdf="http://www.w3.org/1999/02/22-rdf-syntax-ns#" xmlns:sodipodi="http://sodipodi.sourceforge.net/DTD/sodipodi-0.dtd" xmlns:svg="http://www.w3.org/2000/svg"
	 xmlns="http://www.w3.org/2000/svg" xmlns:xlink="http://www.w3.org/1999/xlink" x="0px" y="0px" viewBox="0 0 170 161.9"
	 style="enable-background:new 0 0 170 161.9;" xml:space="preserve">
<style type="text/css">
	.st0{fill:#050505;}
	.st1{fill:#FFFFFF;}
</style>
<sodipodi:namedview  bordercolor="#666666" borderopacity="1.0" id="base" inkscape:current-layer="g14" inkscape:cx="399.95365" inkscape:cy="683.16255" inkscape:document-units="mm" inkscape:pageopacity="0.0" inkscape:pageshadow="2" inkscape:window-height="1018" inkscape:window-maximized="1" inkscape:window-width="1920" inkscape:window-x="-8" inkscape:window-y="-8" inkscape:zoom="2.8" pagecolor="#ffffff" showgrid="false">
	</sodipodi:namedview>
<g id="layer1" inkscape:groupmode="layer" inkscape:label="Layer 1">
	<g id="g14" transform="matrix(0.03527778,0,0,-0.03527778,57.653816,201.66198)">
		<g id="layer1-0" transform="matrix(28.346455,0,0,-28.346455,-406.21501,5596.0458)" inkscape:label="Layer 1">
			
				<path id="path4578" inkscape:connector-curvature="0" sodipodi:nodetypes="scssssssscscccccsscsscccscsccccsssscccsscccscssscccscccccscscscsccccccscccccscsccssccsscscccscsccccsscscssccccscsscscssccsccccscccccccscssssssssss" class="st0" d="
				M-20.3,145.2c0-9.3,0.3-12.4,0.5-13.4c2.1-0.1,4.5-0.3,5.2-0.1c0.3,0.1-0.2,1.3,0.8,1.5c0.6,0.1,0.7,0.1,1.5,0
				c0.9-0.2,2,0.1,2.2-4.1c0.1-2.2,0.2-5.5-0.2-9.2c0-0.5-1.2-1-1.2-1.6c0-5.7,0.3-5.9,0.3-5.9c1.4,0.3,0.4-1.4,1.2-1.3
				c1.1,0.3,0.7-4,0.7-11.1c0-9.6,0-9.7-2.3-9c-3.5,1-9,5.8-11.4,10c-1.2,2.2-2.2,3.5-2.3,3.1c0-2-4.2-27.2-4.5-27.6
				c-0.4-0.4-2.4,4-6.1,13.1c-1.1,2.6-2.2,4.8-2.4,4.8c-0.3,0-0.5-15.2-0.6-33.8c-0.1-30-1-45.7-3-52.6c-0.3-0.9,0.4-2.6,1.6-3.7
				c1.2-1.2,1.7-2.2,1.1-2.6c-0.6-0.3-1.3-0.2-1.6,0.4c-1.3,2-2.5,0.9-2.5-2.2v-3.3l14.5,0.3c8.4,0.2,15.3-0.1,16.4-0.7
				c1.3-0.7,2.2-0.6,3.1,0.2c0.8,0.8,5.1,1.2,12.7,1.2h11.5L14.6,0c-0.2,1.4-0.9,2.4-1.5,2.3c-0.7-0.1-1.3,0.2-1.3,0.8s0.7,1,1.5,1
				c1.9,0,2.3,1.8,3.6,16.5c1.5,17,2.3,77.8,1,77.8c-0.6,0-1.5-1.9-2.1-4.3c-0.6-2.3-1.7-6.3-2.4-8.7L12.2,81L11,88.7
				c-0.7,4.2-1.4,7.7-1.7,7.7c-0.2,0-2.3-1.4-4.6-3c-2.5-1.8-5.4-3-7.3-3h-3.1l0.3,10c0.2,7-0.4,11.1,1,10.7
				c0.3-0.1-0.2,1.5,0.9,1.2c0.7-0.2,0.4,2.5,0.4,6.2c0,0.5-1,1.1-1,1.6c0.1,3.5,0.2,7.6,2.1,6.6c6.9-2.8,10.4-5,10.2-3.5
				c0.2,0.4,0.9,2.7,1.6,5.1c0.7,2.3,1.7,4.3,2,4.3c0.4,0,1.4-1.7,2.2-3.8c0.8-2.1,2-4.9,2.6-6.3l1-2.5l0.1,2.5
				c0.1,3.5,1.9,6.9,3.9,8.8c0.2,2.1,0.2,4.7,0.2,8.3c0,4.2-0.3,6.4,0.8,6.8c2.6,0,1.6,0.5,2.2,2.1c0.3,1,1.1,3.2,2.4,4.8
				c2.4,2.8,2.6,2.8,13.6,2.8s11.2,0,13.6-2.8c1.3-1.5,2.2-4.4,2.2-5.7c0-1.8,0-1.4,2-1.7c0.7-0.2,0.6-3.4,0.7-6.8
				c0.8-3.3-0.3-7,0.3-8.1c1.2-1.1,3-2.9,3.7-6.6l0.9-4.3l1.2,4.8c0.7,2.7,1.9,5.5,2.8,6.4c1.4,1.4,1.7,1,3.2-3.5l1.7-5l4.5,1.5
				c8,2.4,7.4,1.4,7.3-4.3c0-0.5-0.8-0.6-0.8-1.2c-0.1-2.3-0.4-4.4-0.1-6.6c0.1-1,1.5,0.7,1-1.5c0.3-0.2,0.8,0.2,1-0.4
				c0.9-2.8,0.8-4.5,1.1-8.7l0.3-10h-2.6c-2.3,0-5.8,1-8.5,2.9c-2.3,1.5-4.4,2.5-4.7,2s-0.8-3.6-1.2-7c-0.4-3.4-0.9-6.1-1.3-6.1
				c-0.4,0-1.5,3.1-2.4,6.8c-1,3.8-2.1,7.4-2.6,8.1c-2.4,3.9-2.4-41,0-72.2c1.5-19.1,1.8-20.8,4.3-21.6l2.2-0.7l-2.3-0.4
				C66.7,3.1,66,2.2,66,0.5v-2.4h11.8c7.6,0,12.2-0.4,13-1.2C91.7-4,92.3-4,93.4-3c1.2,0.9,5.7,1.1,16.5,0.9c11-0.2,15.3,0,16.1,0.9
				c0.7,0.8,0.8,1.3,0.1,1.3c-0.6,0-1,0.7-1,1.4c0,2.1-2.1,3.1-3.1,1.5c-0.5-0.7-1.2-1-1.6-0.6c-0.4,0.4,0.1,1.6,1.1,2.7
				c1.6,1.8,1.7,2.6,0.5,8.3c-0.8,4-1.5,20.3-1.9,44.4L119.6,96l-2.1-4.5c-1.1-2.5-2.9-6.7-4-9.3s-2.2-4.8-2.5-4.8
				c-0.6,0-3.9,21.2-3.9,25.3c0,3.4-1.6,3.6-2.4,0.4c-1-4.1-11.7-13-13.4-11.2c-0.3,0.3-0.8,4.5-1,9.2c-0.3,6.6-0.7,9.5,0.9,9.5
				c-0.3,2.3,0.7,0.7,0.9,1.8c0.3,1.7,0.2,1.4,0.2,6.1c0,0.5-0.5,0.9-0.6,1.4c-0.3,2.7-0.2,8-0.1,10.1c0.3,3.4,0,3,1.4,3.4
				c1.5,0,1.9,0.2,2.4-1.8c2.1-0.1,3.6-0.2,4.8-0.2c0.6,0,0.8,6.2,0.8,14v12.3H40.4h-60.7V145.2z M86.1,3.1c4.2-0.7,3.9-0.8-3.2-0.9
				c-4.2-0.1-8,0.3-8.3,0.9C73.8,4.3,79.5,4.3,86.1,3.1L86.1,3.1z M113.2,3.1c1-0.7-1.6-1-8.3-1c-5.9,0-9.8,0.4-9.8,1
				C95.1,4.4,111.1,4.4,113.2,3.1z M-14.2,2.1c0-0.6-3.8-1-9.5-1s-9.5,0.4-9.5,1s3.8,1,9.5,1S-14.2,2.7-14.2,2.1z M6.3,2.1
				c-0.3-0.6-4-1-8.1-1c-4.3,0-7.5,0.4-7.5,1s3.4,1,8.1,1C4,3.1,6.7,2.7,6.3,2.1z"/>
		</g>
		<path id="path53" inkscape:connector-curvature="0" class="st1" d="M2181.4,3837.3c-3.1,1.3-7.2,6.3-9.2,11.1
			c-3.2,7.6-2.8,11,2.6,29.2c35,116,45.3,167.4,38,189.7c-4.8,14.4-18.5,24.9-43,32.6c-61.1,19.3-100,15.1-140-15.3
			c-47.4-35.9-84.4-50.3-130-50.4c-47.6-0.1-77.8,25.6-63.1,53.8c2.2,4.3,8.2,11,13.4,14.9c5.1,3.9,12.7,14,16.8,22.4
			c6.9,14.1,7.5,17.7,7.5,47.5c0,28-0.8,34.1-6.2,46.1c-16.2,35.7-48.6,45-72.8,20.9c-8.9-8.9-9.1-9.6-7.3-24.3l1.9-15.1l-7.9,5.6
			c-4.3,3.1-9.6,7.7-11.7,10.2c-2.1,2.5-6.9,5.9-10.6,7.5c-13.2,5.7-55.5,56.6-68.7,82.8c-3.5,6.9-7.7,18.1-9.5,24.9
			c-2.5,9.8-6,14.9-16.4,23.6c-20.3,17-31.4,43.7-26.2,62.8c5.7,20.8,23.3,28.7,107.5,48.6c45.4,10.7,62.8,18.2,64.1,27.3
			c0.5,3.2-2.3,11.9-6.1,19.4c-8.7,17.1-8.6,20.1,0.9,36.7c11,19.1,51,56.4,124.3,115.8c68.4,55.4,106.7,91.4,113.9,106.8
			c3.6,7.8,4.2,14,2.9,29.8c-2.7,32.4,0.2,36.2,43.1,57c44,21.3,61.6,35.1,95.5,74.4c32.6,37.9,48.5,52.7,63.9,59.6
			c14.2,6.3,19.3,5.3,47.6-8.8c61.6-30.7,98.3-33,166.4-10.4c68.4,22.7,105.8,27.2,113.1,13.6c7.3-13.6-17.7-93.1-60.7-193
			c-36.7-85.5-45.6-109-55.1-145.4c-14.9-57.5-16.4-119.9-6.1-249c6.3-79.4,6.3-211.9-0.1-254.1c-12.3-82.3-35.5-138.9-78.3-191.8
			c-35.1-43.4-96.3-91.5-139.5-109.7C2216.2,3836.6,2191.2,3833.1,2181.4,3837.3L2181.4,3837.3z M2042.5,4294.1
			c22.6,8,36.9,24,44.6,50.1c11.8,39.6-2.2,85.2-29.7,97.3c-16,7.1-27.6,5-41.5-7.5c-17.8-16.1-29.9-60.6-20.4-75.1
			c5.3-8.1,10.8-8.5,22.6-1.3c16.3,9.9,21.2,34.1,11.4,55.8c-2.9,6.3-4.1,11.4-2.7,11.4c4.8,0,37.1-32.5,41.5-41.7
			c6-12.7,3.5-20.4-12.6-38c-22.4-24.6-33.5-27.6-53.3-14.9c-15.2,9.8-26.3,21.7-67.2,71.6l-33,40.3l11.8,5.4
			c73,33.2,95.2,47.1,102.1,63.6c3.1,7.4,2.8,9.2-1.9,15.6c-8.6,11.7-29.6,17.4-64.1,17.7c-53.2,0.3-69.8-11.5-73.3-51.9
			c-4.4-53.1,28.5-134.2,69.5-171.1C1976.5,4294.2,2013.3,4283.8,2042.5,4294.1L2042.5,4294.1z M2311,4777.4
			c25,14.5,36.9,59.6,26.9,102.3c-5.7,24.1-13.1,37.1-33.4,58.1c-28,29-38.8,32-46.9,13.1c-10.9-25.3-21-84.3-21.6-126.3
			c-0.4-26.5,0.2-30.7,5-35.9C2256.8,4771.1,2290.8,4765.7,2311,4777.4L2311,4777.4z"/>
		<path id="path57" inkscape:connector-curvature="0" class="st1" d="M-716.6,3649.4c0,4.3-15.4,34.4-34.3,66.8l-34.3,59l14.6,41.7
			c8,22.9,18.4,74,23.2,113.3c6.1,50.7,14,80.9,27.4,103.6c35.1,60,15.4,150.2-45.8,209.6l-24.6,23.8l-23.9-20.1l-23.9-20.1v18.8
			c0,10.3-5.1,23-11.4,28.3c-24.4,20.3-57.1-34.3-57.1-95.5c0-40.2,7.5-57.2,42.6-96.5c30.8-34.4,37.1-64.9,28.5-137.2l-6.7-55.6
			l-36.4,60.9c-20,33.5-85.7,158.8-145.8,278.4l-109.4,217.5l131,262.7c129.8,260.2,179.5,350.6,179.8,326.4
			c0.1-6.9-8.9-42.8-19.9-80.1c-39.8-134.1-49-180.9-49.2-252.1l-0.2-70.3l-32.7-33.6c-58-59.7-57.2-149.7,1.3-149.7
			c18.4,0,42.2,20.7,35.7,31.1c-7.5,12.2,19.6,17.1,47.5,8.5c38.4-11.8,48.1-5.3,48.1,32c0,22.3,6.8,42.7,22.5,67.4
			c23.6,37.2,77.7,81.9,99.1,81.9c36.6,0,41.8,51.1,8.6,84.5c-12.2,12.2-27.4,22.3-33.8,22.3c-19.8,0-51.7-14.9-76.2-35.3
			c-13.1-11-24.6-16.1-26.1-11.5c-1.5,4.5,2.9,36.6,9.7,71.4c19.3,97.7,16.9,93.8,41.8,67.1c15-16.1,28.7-23,45.1-23
			c18.8,0,23.6-3.2,23.6-15.8c0-8.8,19.2-35.9,43.3-61.2l43.3-45.4l-61.3-62.5c-33.7-34.4-63.5-68.9-66.2-76.7
			c-5.8-16.7,19.6-77.6,42.6-102.1c19.4-20.7,41.5-21.8,79.3-3.9c23.1,10.9,28.8,11.4,31.7,2.9c8.9-26.3,33.4-40.8,61.5-36.3
			c44.2,7.1,57,29.3,51.9,90.1c-6.6,79.6-28.9,111.2-71,100.7l-18.8-4.7l16.7,32c14.5,27.8,16.1,39.7,12.1,90.5
			c-5,64.2-31.5,163.6-61.8,232.1c-24.4,55-24.5,68.8-0.4,41.4c29.6-33.7,85.1-131.7,192.7-341.1l100.2-194.7l-75.1-155.8
			c-41.2-85.8-103.1-214.2-137.3-285.3c-68.4-142.4-76.6-148-76.8-53.3c-0.1,67.8,9.1,99.7,34.7,119.9
			c39.7,31.2,51.2,87.6,29.2,142.6c-15.8,39.5-34.7,45.3-65,19.8c-14.1-11.9-28.9-18.1-36.9-15.6c-21.5,6.8-30.1-12.4-37.7-84.5
			c-8.2-77.5-16.3-104.3-49.4-163.1c-20.9-37.3-23.5-48.8-23.6-104.3c-0.1-55.3-2.2-64.5-18.4-81.9c-38.1-40.6-18-86.5,45.6-103.6
			c16.2-4.4,31.2-10.8,33.4-14.4c4.9-7.9-38.6-69.3-49.1-69.3C-713.2,3641.6-716.6,3645.1-716.6,3649.4L-716.6,3649.4z"/>
	</g>
</g>
</svg>
