<?xml version="1.0" encoding="UTF-8" standalone="no"?>
<!-- Created with Inkscape (http://www.inkscape.org/) -->

<svg
   xmlns:dc="http://purl.org/dc/elements/1.1/"
   xmlns:cc="http://creativecommons.org/ns#"
   xmlns:rdf="http://www.w3.org/1999/02/22-rdf-syntax-ns#"
   xmlns:svg="http://www.w3.org/2000/svg"
   xmlns="http://www.w3.org/2000/svg"
   xmlns:sodipodi="http://sodipodi.sourceforge.net/DTD/sodipodi-0.dtd"
   xmlns:inkscape="http://www.inkscape.org/namespaces/inkscape"
   width="210mm"
   height="297mm"
   viewBox="0 0 210 297"
   version="1.1"
   id="svg8"
   inkscape:version="0.92.1 r15371"
   sodipodi:docname="war.svg">
  <defs
     id="defs2" />
  <sodipodi:namedview
     id="base"
     pagecolor="#ffffff"
     bordercolor="#666666"
     borderopacity="1.0"
     inkscape:pageopacity="0.0"
     inkscape:pageshadow="2"
     inkscape:zoom="2.8"
     inkscape:cx="399.95365"
     inkscape:cy="683.16255"
     inkscape:document-units="mm"
     inkscape:current-layer="g14"
     showgrid="false"
     inkscape:window-width="1920"
     inkscape:window-height="1018"
     inkscape:window-x="-8"
     inkscape:window-y="-8"
     inkscape:window-maximized="1" />
  <metadata
     id="metadata5">
    <rdf:RDF>
      <cc:Work
         rdf:about="">
        <dc:format>image/svg+xml</dc:format>
        <dc:type
           rdf:resource="http://purl.org/dc/dcmitype/StillImage" />
        <dc:title></dc:title>
      </cc:Work>
    </rdf:RDF>
  </metadata>
  <g
     inkscape:label="Layer 1"
     inkscape:groupmode="layer"
     id="layer1">
    <g
       id="g14"
       transform="matrix(0.03527778,0,0,-0.03527778,57.653816,201.66198)"
       style="fill:#000000;stroke:none">
      <g
         id="layer1-0"
         inkscape:label="Layer 1"
         transform="matrix(28.346455,0,0,-28.346455,-406.21501,5596.0458)">
        <path
           sodipodi:nodetypes="scssssssscscccccsscsscccscsccccsssscccsscccscssscccscccccscscscsccccccscccccscsccssccsscscccscsccccsscscssccccscsscscssccsccccscccccccscssssssssss"
           inkscape:connector-curvature="0"
           id="path4578"
           d="m 15.213538,140.90701 c 0,-3.27186 0.122057,-4.36822 0.179136,-4.70255 0.73036,-0.0522 1.591804,-0.12111 1.833984,-0.0505 0.105915,0.0309 -0.0588,0.4635 0.296297,0.52419 0.2174,0.0372 0.241412,0.0512 0.517189,-0.003 0.309815,-0.0606 0.71653,0.0403 0.771714,-1.44759 0.02933,-0.79083 0.06398,-1.93952 -0.06256,-3.24934 -0.0175,-0.18122 -0.426199,-0.36314 -0.426887,-0.5569 -0.0071,-2.0074 0.113928,-2.0769 0.113928,-2.0769 0.490004,0.11353 0.146854,-0.497 0.418382,-0.46276 0.381458,0.10637 0.239328,-1.39891 0.239328,-3.89151 0,-3.36078 -0.0092,-3.39762 -0.79375,-3.16524 -1.277915,0.37854 -3.200969,2.06377 -4.051141,3.55013 -0.433371,0.75767 -0.790558,1.24791 -0.79375,1.08943 -0.014,-0.69539 -1.460391,-9.57431 -1.578984,-9.6929 -0.13129,-0.13129 -0.857604,1.41976 -2.1539804,4.59986 -0.375409,0.92091 -0.761937,1.67496 -0.858951,1.67568 -0.09701,7.2e-4 -0.190486,-5.3565 -0.207715,-11.90493 -0.02778,-10.56025 -0.34347,-16.072883 -1.059022,-18.493112 -0.09683,-0.327522 0.157791,-0.899085 0.572756,-1.285684 0.43708,-0.407202 0.599801,-0.787055 0.392136,-0.915399 -0.195227,-0.120657 -0.454671,-0.05804 -0.576543,0.139157 -0.445524,0.720873 -0.885514,0.329573 -0.88605,-0.787996 l -5.64e-4,-1.146528 5.1053714,0.106203 c 2.963237,0.06164 5.383122,-0.04245 5.767338,-0.248072 0.464348,-0.248512 0.787745,-0.228498 1.083284,0.06704 0.277324,0.277323 1.807994,0.422391 4.478684,0.42446 l 4.057383,0.0031 -0.103112,0.881944 c -0.05671,0.48507 -0.301549,0.842257 -0.544084,0.793751 -0.242535,-0.04851 -0.440972,0.07055 -0.440972,0.264583 0,0.194028 0.235101,0.352778 0.522446,0.352778 0.659901,0 0.794084,0.618127 1.263584,5.820828 0.539023,5.973127 0.824139,27.340277 0.364818,27.340277 -0.19787,0 -0.536449,-0.67469 -0.752398,-1.4993 -0.215948,-0.82462 -0.592586,-2.20236 -0.836972,-3.06165 l -0.44434,-1.56234 -0.436987,2.70887 c -0.240343,1.48988 -0.506199,2.70887 -0.59079,2.70887 -0.08459,0 -0.811248,-0.47625 -1.61479,-1.05834 -0.874121,-0.63321 -1.900276,-1.05864 -2.554585,-1.0591 l -1.093597,-7.1e-4 0.111103,3.50437 c 0.0786,2.47916 -0.134563,3.89226 0.367029,3.74681 0.117,-0.0394 -0.07782,0.5288 0.319112,0.42134 0.260451,-0.0705 0.138947,0.88909 0.151646,2.18187 0.0019,0.19155 -0.368925,0.37715 -0.364284,0.56102 0.03139,1.24384 0.07245,2.66974 0.726096,2.33904 2.429927,-0.97703 3.668431,-1.76791 3.577989,-1.22031 0.0661,0.13257 0.313911,0.96015 0.573355,1.78476 0.259445,0.82462 0.580948,1.49931 0.714451,1.49931 0.133505,0 0.48705,-0.59531 0.785657,-1.32292 0.298608,-0.7276 0.708849,-1.71979 0.911647,-2.20486 l 0.368723,-0.88194 0.03162,0.88194 c 0.03393,1.24575 0.659831,2.43387 1.357817,3.08123 0.0572,0.74921 0.06942,1.63735 0.06942,2.91671 0,1.48826 -0.08831,2.24418 0.297657,2.39229 0.917764,0.0117 0.579434,0.19246 0.760676,0.75119 0.118276,0.36462 0.38313,1.14237 0.8514,1.68676 0.838405,0.97471 0.91156,0.98981 4.793045,0.98981 3.881485,0 3.954645,-0.0151 4.793045,-0.98981 0.46827,-0.54439 0.76566,-1.56305 0.768718,-2.02112 0.0041,-0.61931 -0.01741,-0.49972 0.707103,-0.60065 0.23283,-0.0776 0.200549,-1.18563 0.229389,-2.40205 0.275447,-1.15514 -0.103649,-2.46737 0.113031,-2.85542 0.415117,-0.37152 1.051481,-1.02305 1.289211,-2.3096 l 0.299948,-1.52135 0.43852,1.70392 c 0.24119,0.93716 0.67991,1.94531 0.97493,2.24033 0.48002,0.48002 0.59786,0.35138 1.12105,-1.2238 l 0.58465,-1.76021 1.590437,0.51197 c 2.825435,0.84341 2.589764,0.47919 2.562823,-1.52873 -0.0027,-0.16953 -0.271012,-0.22711 -0.278427,-0.43164 -0.02003,-0.79537 -0.131486,-1.56448 -0.03923,-2.30481 0.04514,-0.36213 0.51705,0.23462 0.33649,-0.53502 0.09228,-0.0688 0.276891,0.0662 0.342091,-0.13285 0.325261,-0.99299 0.2659,-1.59311 0.380206,-3.06141 l 0.08867,-3.53191 -0.905047,0.0165 c -0.792438,0.0145 -2.040413,0.35071 -2.982153,1.0329 -0.79679,0.57719 -1.53601,0.9082 -1.64271,0.73557 -0.10669,-0.17264 -0.29495,-1.27989 -0.41835,-2.46056 -0.12341,-1.18067 -0.32991,-2.14668 -0.45889,-2.14668 -0.12899,0 -0.51492,1.08108 -0.85762,2.40239 -0.3427,1.32131 -0.75151,2.61015 -0.90845,2.86409 -0.84151,1.36159 -0.83524,-14.41144 0.0101,-25.374807 0.51776,-6.714987 0.63514,-7.306019 1.5089,-7.597582 l 0.75849,-0.253096 -0.79375,-0.15614 c -0.5626,-0.110622 -0.79376,-0.405786 -0.79376,-1.013502 v -0.857408 h 4.16278 c 2.68268,0 4.30798,-0.145203 4.57116,-0.408382 0.30933,-0.309324 0.53527,-0.303081 0.93147,0.02574 0.37706,0.312929 1.99385,0.402315 5.79148,0.320187 3.8844,-0.084 5.37637,0.0019 5.67939,0.327037 0.2579,0.276719 0.2744,0.440972 0.0443,0.440972 -0.20168,0 -0.36669,0.228756 -0.36669,0.508347 0,0.728732 -0.73117,1.079343 -1.07859,0.517205 -0.16178,-0.261773 -0.40765,-0.36246 -0.54636,-0.223748 -0.13871,0.138712 0.0296,0.563609 0.37406,0.944215 0.56653,0.626013 0.58392,0.903787 0.18233,2.912579 -0.28144,1.407795 -0.52221,7.127283 -0.65782,15.626123 l -0.21389,13.40556 -0.72855,-1.5875 c -0.40071,-0.87313 -1.03571,-2.34097 -1.41112,-3.26188 -0.3754,-0.9209 -0.7724,-1.67496 -0.88221,-1.67569 -0.22778,-0.002 -1.38785,7.44772 -1.38785,8.91184 0,1.18467 -0.55244,1.26993 -0.83868,0.12944 -0.36392,-1.44997 -4.10138,-4.57291 -4.72564,-3.94865 -0.1139,0.1139 -0.27872,1.57181 -0.36627,3.23979 -0.12238,2.33156 -0.256975,3.34789 0.32807,3.33395 -0.102149,0.793 0.255435,0.24406 0.331706,0.64818 0.114028,0.60417 0.06879,0.48637 0.06955,2.1379 9.3e-5,0.18708 -0.184314,0.31845 -0.204245,0.50617 -0.102368,0.96414 -0.07839,2.80283 -0.0211,3.53692 0.09363,1.19989 -0.01183,1.05128 0.481527,1.17956 0.534119,6.4e-4 0.655343,0.0685 0.848707,-0.61661 0.729784,-0.0523 1.252726,-0.0588 1.680599,-0.0719 0.227287,-0.007 0.29028,2.16476 0.293718,4.91278 l 0.005,4.32153 H 36.556594 15.213538 Z M 52.607984,90.963771 c 1.46845,-0.261289 1.38402,-0.285785 -1.12571,-0.326629 -1.49226,-0.02429 -2.81132,0.114594 -2.93123,0.308622 -0.25859,0.418396 1.75648,0.42734 4.05694,0.01801 z m 9.525,-0.01801 c 0.3617,-0.23375 -0.55935,-0.343683 -2.91042,-0.347376 -2.06147,-0.0032 -3.43958,0.135943 -3.43958,0.347376 0,0.457357 5.64229,0.457357 6.35,0 z m -44.80278,-0.352775 c 0,-0.210429 -1.352314,-0.352778 -3.351389,-0.352778 -1.999074,0 -3.351389,0.142349 -3.351389,0.352778 0,0.210429 1.352315,0.352778 3.351389,0.352778 1.999075,0 3.351389,-0.142349 3.351389,-0.352778 z m 7.231945,0 c -0.119916,-0.194028 -1.399285,-0.352778 -2.843042,-0.352778 -1.514824,0 -2.625014,0.1492 -2.625014,0.352778 0,0.206003 1.182866,0.352778 2.843043,0.352778 1.805528,0 2.763476,-0.12874 2.625013,-0.352778 z"
           style="fill:#050505;stroke-width:0.35277778" />
      </g>
      <path
         style="fill:#ffffff;stroke-width:0.94701797"
         d="m 1136.7965,2430.9111 c -1.0891,0.4725 -2.5455,2.2236 -3.2365,3.8917 -1.1101,2.6799 -1.0018,3.8748 0.9301,10.2667 12.3226,40.7703 15.9404,58.8445 13.3498,66.6941 -1.6771,5.0818 -6.5242,8.7627 -15.1104,11.4751 -21.4966,6.7907 -35.131,5.303 -49.1952,-5.368 -16.6604,-12.6407 -29.6571,-17.6842 -45.6799,-17.7266 -16.7292,-0.045 -27.3263,8.9917 -22.1911,18.922 0.7808,1.5098 2.901,3.875 4.7117,5.2561 1.8107,1.3811 4.4747,4.9189 5.9199,7.8619 2.429,4.9462 2.6277,6.2101 2.6277,16.7149 0,9.8555 -0.291,12.0078 -2.1938,16.2114 -5.6893,12.5704 -17.0776,15.8457 -25.5696,7.3537 -3.13384,-3.1338 -3.21004,-3.3879 -2.56514,-8.5496 l 0.6645,-5.3198 -2.772,1.9738 c -1.5246,1.0856 -3.37328,2.6984 -4.10808,3.5837 -0.735,0.8855 -2.41567,2.0773 -3.73522,2.6486 -4.64827,2.0123 -19.50847,19.8967 -24.1764,29.0963 -1.22295,2.4103 -2.7204,6.3557 -3.32775,8.7675 -0.86512,3.4358 -2.11417,5.2308 -5.7699,8.2915 -7.12732,5.9674 -11.04945,15.3875 -9.19815,22.0923 2.01893,7.3119 8.20013,10.1123 37.76798,17.1107 15.97502,3.7811 22.08496,6.3847 22.54736,9.6078 0.1605,1.1211 -0.7981,4.1902 -2.1308,6.8202 -3.05,6.0188 -3.0234,7.0819 0.3225,12.9149 3.852,6.7157 17.9312,19.8372 43.6715,40.7013 24.0624,19.5041 37.5094,32.1123 40.0404,37.5429 1.2706,2.7261 1.4833,4.9267 1.0135,10.4849 -0.9625,11.3862 0.053,12.73 15.1571,20.0574 15.4603,7.5003 21.6584,12.3309 33.5431,26.1432 11.4795,13.3411 17.073,18.5514 22.4868,20.9463 4.9919,2.2081 6.8036,1.8741 16.7538,-3.0894 21.6618,-10.8054 34.542,-11.6079 58.5016,-3.6446 24.0734,8.0011 37.1805,9.5754 39.7499,4.7744 2.5664,-4.7953 -6.213,-32.718 -21.3372,-67.8621 -12.9203,-30.0226 -16.0552,-38.2947 -19.371,-51.113 -5.2272,-20.2077 -5.7682,-42.1478 -2.158,-87.5212 2.2192,-27.8912 2.2092,-74.4666 -0.023,-89.3047 -4.343,-28.9171 -12.4706,-48.8388 -27.509,-67.4268 -12.3446,-15.2584 -33.8467,-32.1555 -49.0445,-38.5409 -7.1136,-2.9888 -15.9136,-4.2336 -19.3605,-2.7386 z m -48.8397,160.5493 c 7.9567,2.8073 12.9799,8.4404 15.7027,17.6088 4.1333,13.9182 -0.7563,29.9165 -10.4546,34.2065 -5.6223,2.487 -9.7247,1.7433 -14.5799,-2.643 -6.2558,-5.6518 -10.5094,-21.2985 -7.1739,-26.3892 1.8771,-2.8647 3.8161,-2.9742 7.9572,-0.4492 5.7209,3.488 7.4536,12.0033 3.9933,19.6264 -1.0048,2.2136 -1.4372,4.0248 -0.9608,4.0248 1.6794,0 13.0636,-11.4336 14.5929,-14.6562 2.1192,-4.4658 1.2151,-7.1894 -4.4406,-13.3776 -7.8926,-8.6358 -11.7907,-9.7236 -18.7385,-5.2296 -5.3371,3.4522 -9.2473,7.6177 -23.6235,25.1664 l -11.5984,14.1579 4.1416,1.8865 c 25.6304,11.6753 33.467,16.5638 35.876,22.3794 1.0749,2.5954 0.9981,3.2372 -0.657,5.4834 -3.0237,4.1034 -10.4,6.1351 -22.5542,6.2122 -18.7109,0.1185 -24.5616,-4.03 -25.7548,-18.2624 -1.5647,-18.6639 10.0304,-47.1799 24.4592,-60.1527 10.6231,-9.551 23.5424,-13.216 33.8134,-9.5922 z m 94.3779,169.8925 c 8.8046,5.0916 12.99,20.9803 9.465,35.9314 -2.0023,8.4929 -4.6171,13.0454 -11.7309,20.4239 -9.8335,10.1996 -13.6351,11.2639 -16.5065,4.6211 -3.8472,-8.9 -7.395,-29.6315 -7.5957,-44.3861 -0.1268,-9.3363 0.075,-10.7924 1.7482,-12.6449 5.5484,-6.1403 17.5098,-8.0572 24.6199,-3.9454 z"
         id="path53"
         inkscape:connector-curvature="0" />
      <path
         style="fill:#ffffff;stroke-width:2.67857122"
         d="m 118.17375,2364.8739 c 0,1.5071 -5.42865,12.083 -12.06352,23.5021 l -12.063535,20.7619 5.1198,14.6676 c 2.815955,8.0672 6.480905,25.9796 8.144335,39.8054 2.14695,17.8444 4.93875,28.4042 9.62227,36.3961 12.36315,21.0961 5.42633,52.8019 -16.12192,73.6872 l -8.651785,8.3857 -8.42145,-7.0861 -8.42137,-7.0862 v 6.6065 c 0,3.6336 -1.80803,8.1072 -4.01782,9.9411 -8.5989,7.1364 -20.08935,-12.0657 -20.08935,-33.5721 0,-14.1414 2.63302,-20.1052 14.96737,-33.902 10.8264,-12.11 13.0557,-22.8407 10.0191,-48.2273 l -2.34038,-19.5664 -12.80264,21.4286 c -7.04145,11.7857 -30.10605,55.8165 -51.2547799,97.8464 l -38.4521201,76.4179 46.05885,92.3321 c 45.62167,91.4558 63.11962,123.2116 63.21802,114.7299 0.03,-2.4132 -3.1233,-15.0695 -7.00283,-28.125 -14.00909,-47.143 -17.22367,-63.612 -17.29559,-88.6077 l -0.0675,-24.692 -11.50125,-11.8341 c -20.39925,-20.9892 -20.12865,-52.6211 0.45,-52.6211 6.48,0 14.8275,7.2778 12.55852,10.9491 -2.64735,4.2835 6.9111,5.9998 16.69365,2.9975 13.51972,-4.1494 16.93365,-1.8789 16.93365,11.262 0,7.8495 2.38627,15.0054 7.90687,23.7104 8.291635,13.0746 27.279905,28.7595 34.816435,28.7595 12.8808,0 14.70982,17.979 3.01845,29.6703 -4.30635,4.3064 -9.65198,7.8297 -11.87925,7.8297 -6.9528,0 -18.19875,-5.2239 -26.767285,-12.4338 -4.60665,-3.8763 -8.65635,-5.6508 -9.19665,-4.0298 -0.531,1.593 1.00928,12.8798 3.42293,25.0818 6.79207,34.3373 5.9352,32.9609 14.687105,23.5919 5.27467,-5.6465 10.08555,-8.103 15.86962,-8.103 6.61365,0 8.30033,-1.1289 8.30033,-5.5559 0,-3.0991 6.73882,-12.621 15.2391,-21.5326 l 15.23917,-15.9767 -21.57045,-21.9941 c -11.8638,-12.0968 -22.3434,-24.2176 -23.2881,-26.9352 -2.0388,-5.8649 6.90068,-27.2759 14.97803,-35.8738 6.83535,-7.2759 14.59612,-7.6581 27.86872,-1.3727 8.1201,3.8455 10.12125,4.0259 11.13997,1.0045 3.11948,-9.2524 11.7573,-14.3519 21.63255,-12.7714 15.54143,2.4874 20.0493,10.2968 18.2724,31.6553 -2.32605,27.9594 -10.16437,39.0759 -24.93817,35.3679 l -6.60825,-1.6585 5.86245,11.2474 c 5.0898,9.7649 5.65192,13.9559 4.26442,31.7949 -1.75635,22.5818 -11.07525,57.5231 -21.75247,81.5613 -8.58548,19.3288 -8.63348,24.2126 -0.14325,14.5635 10.41525,-11.8367 29.88652,-46.2946 67.75492,-119.905 l 35.2059,-68.4347 -26.37728,-54.7795 c -14.50754,-30.1288 -36.22559,-75.26 -48.26227,-100.2917 -24.06697,-50.0497 -26.90377,-52.0221 -26.97645,-18.756 -0.0525,23.8369 3.19298,35.0413 12.20093,42.1269 13.9491,10.9725 18.01057,30.7791 10.27545,50.111 -5.56358,13.9049 -12.21623,15.9305 -22.87208,6.9642 -4.96935,-4.1814 -10.16362,-6.3821 -12.96502,-5.4929 -7.56127,2.3998 -10.58887,-4.3701 -13.2777,-29.6894 -2.89305,-27.2423 -5.74387,-36.6586 -17.36032,-57.341 -7.35938,-13.103 -8.27828,-17.156 -8.30903,-36.6514 -0.03,-19.4339 -0.7647,-22.6964 -6.47325,-28.7728 -13.410375,-14.2748 -6.31935,-30.3831 16.0233,-36.3993 5.69123,-1.5325 10.97933,-3.8084 11.7513,-5.0575 1.72313,-2.7881 -13.56727,-24.369 -17.26567,-24.369 -1.464,0 -2.66175,1.2331 -2.66175,2.7401 z"
         id="path57"
         inkscape:connector-curvature="0" />
    </g>
  </g>
</svg>
