<?xml version="1.0" encoding="UTF-8" standalone="no"?>
<!-- Created with Inkscape (http://www.inkscape.org/) -->

<svg
   xmlns:dc="http://purl.org/dc/elements/1.1/"
   xmlns:cc="http://creativecommons.org/ns#"
   xmlns:rdf="http://www.w3.org/1999/02/22-rdf-syntax-ns#"
   xmlns:svg="http://www.w3.org/2000/svg"
   xmlns="http://www.w3.org/2000/svg"
   xmlns:sodipodi="http://sodipodi.sourceforge.net/DTD/sodipodi-0.dtd"
   xmlns:inkscape="http://www.inkscape.org/namespaces/inkscape"
   width="210mm"
   height="297mm"
   viewBox="0 0 210 297"
   version="1.1"
   id="svg8"
   inkscape:version="0.92.1 r15371"
   sodipodi:docname="magic.svg">
  <defs
     id="defs2" />
  <sodipodi:namedview
     id="base"
     pagecolor="#ffffff"
     bordercolor="#666666"
     borderopacity="1.0"
     inkscape:pageopacity="0.0"
     inkscape:pageshadow="2"
     inkscape:zoom="1"
     inkscape:cx="288.3304"
     inkscape:cy="337.54449"
     inkscape:document-units="mm"
     inkscape:current-layer="layer1"
     showgrid="false"
     showguides="true"
     inkscape:guide-bbox="true"
     inkscape:window-width="1920"
     inkscape:window-height="1018"
     inkscape:window-x="-8"
     inkscape:window-y="-8"
     inkscape:window-maximized="1">
    <sodipodi:guide
       position="99.531169,145.32113"
       orientation="1,0"
       id="guide4530"
       inkscape:locked="false" />
    <sodipodi:guide
       position="100.20937,142.81882"
       orientation="0,1"
       id="guide4532"
       inkscape:locked="false" />
  </sodipodi:namedview>
  <metadata
     id="metadata5">
    <rdf:RDF>
      <cc:Work
         rdf:about="">
        <dc:format>image/svg+xml</dc:format>
        <dc:type
           rdf:resource="http://purl.org/dc/dcmitype/StillImage" />
        <dc:title></dc:title>
      </cc:Work>
    </rdf:RDF>
  </metadata>
  <g
     inkscape:label="Layer 1"
     inkscape:groupmode="layer"
     id="layer1">
    <path
       style="fill:#080808;stroke-width:0.35277778"
       d="m 112.53302,186.88777 c -2.08107,-4.79023 -7.00804,-17.63601 -7.00804,-18.27164 0,-0.31666 2.68304,-1.92489 3.21132,-1.92489 0.4495,0 0.62909,0.49048 0.80731,2.20486 0.1355,1.30335 1.32184,5.4049 2.90149,10.03132 2.66099,7.79338 2.66953,7.83024 2.02122,8.72017 -0.35809,0.49153 -0.77577,0.89869 -0.92819,0.90479 -0.15241,0.006 -0.60471,-0.74298 -1.00511,-1.66461 z m -9.72648,-8.33207 c -2.901117,-3.17429 -3.625317,-6.68999 -2.01824,-9.79773 0.51678,-0.99935 0.61607,-1.04687 1.12464,-0.53829 0.47062,0.47062 0.49323,0.77342 0.14465,1.93687 -0.85276,2.84629 -0.21744,5.63436 1.92355,8.44135 1.55864,2.04347 0.70351,2.01275 -1.1746,-0.0422 z m 0.48418,-10.33576 c -0.54654,-0.54653 -0.10922,-1.09056 2.05806,-2.56025 1.26128,-0.85531 2.21701,-1.63134 2.12383,-1.72452 -0.0932,-0.0932 -0.82733,0.29039 -1.63146,0.85236 -3.41305,2.38523 -3.30492,2.34401 -4.21562,1.60657 -0.46369,-0.29427 -0.74019,-0.53087 -0.59916,-1.04911 0.0841,-0.36056 1.33727,-0.91051 2.01989,-1.33775 3.31212,-2.55489 3.9009,-3.11476 2.12594,-2.02152 -0.87313,0.53777 -2.10896,1.41964 -2.74631,1.9597 -1.38381,1.1726 -2.4094,1.2605 -2.735057,0.23441 -0.19032,-0.59963 0.24118,-1.2395 2.181077,-3.23431 1.88905,-1.94252 2.08889,-2.23465 0.91305,-1.33475 -0.82792,0.63361 -1.65491,1.43157 -1.83776,1.77323 -0.18285,0.34167 -0.76224,0.90282 -1.287537,1.247 -0.91677,0.60069 -0.97394,0.59999 -1.42543,-0.0175 -0.801474,-1.09608 -0.542581,-1.6541 2.101867,-4.5304 l 2.5626,-2.78726 1.31314,0.43337 c 1.31418,0.43372 1.70792,1.25388 0.96068,2.00112 -0.23476,0.23476 0.0327,0.30749 0.8009,0.21781 1.55418,-0.18145 2.74602,1.01045 2.07877,2.07888 -0.37912,0.60706 -0.3557,0.68984 0.1691,0.59762 0.36996,-0.065 0.82599,0.28173 1.16129,0.88301 0.50673,0.90866 0.50287,1.02677 -0.0469,1.43659 -0.55768,0.41572 -0.55002,0.48851 0.11097,1.05447 0.95357,0.81647 0.71918,1.67731 -0.57027,2.09445 -0.58209,0.1883 -1.68492,0.79677 -2.45075,1.35215 -1.327,0.96234 -2.62615,1.28335 -3.1349,0.7746 z m 6.02962,-8.95128 c 0.082,-0.50294 -0.17827,-1.65905 -0.39806,-2.04459 -0.11683,-0.22289 -0.18695,-0.31041 -0.18695,-0.31041 0.0132,0.0779 -0.0328,0.35228 -0.0939,0.51109 -0.51071,1.32633 0.005,0.24805 -0.85739,-0.49251 0,0 -0.0257,-0.48746 -0.095,-1.02271 -0.34766,-2.68517 -1.66976,-3.72059 -3.44121,-5.25543 0.54728,-0.89801 -3.15766,-3.85339 -4.455999,-4.4852 -0.515218,-0.23854 -0.204727,-0.46477 -0.260652,-1.33726 0.01647,-1.3686 -0.48283,-1.69607 -0.58985,-1.97498 -0.28067,-0.73139 1.093511,-0.65235 3.988871,0.22943 4.23582,1.29002 7.00038,3.13704 6.47535,5.14528 -0.21048,0.80507 -0.002,0.24152 -0.47998,-0.45753 -0.35584,-0.87251 -1.35697,-1.23547 -1.54766,-1.04478 -0.0593,0.0593 0.44952,0.93598 1.13069,1.9482 1.64385,2.44275 2.30909,4.83667 2.30325,8.28842 -0.005,2.89632 -0.83708,4.95178 -0.89073,4.59615 -0.0436,-0.28932 -0.0222,-0.85707 -0.50273,-1.44234 -0.27633,-0.36461 -0.25827,-0.10149 -0.098,-0.85083 z m -16.40851,0.32831 c 0.119215,-1.46064 -0.816599,-2.13189 -1.769671,-1.26937 -0.366185,0.33139 -1.027462,0.60253 -1.469506,0.60253 -0.634179,0 -0.746172,-0.13023 -0.530921,-0.61736 0.150036,-0.33955 0.286083,-1.09361 0.302326,-1.6757 0.02736,-0.98049 -0.07094,-1.06657 -1.336519,-1.17039 l -1.366052,-0.11206 0.899918,-0.94628 c 0.494956,-0.52045 1.007827,-1.38283 1.139713,-1.91641 0.215455,-0.87167 0.146395,-0.97014 -0.680394,-0.97014 -1.044179,0 -1.118447,-0.23737 -0.379802,-1.21395 0.284871,-0.37663 0.517947,-0.96642 0.517947,-1.31064 0,-0.34422 0.451939,-1.14732 1.00431,-1.78466 0.9962,-1.14944 1.74561,-3.45186 1.123541,-3.45186 -0.51753,0 -1.422296,1.49589 -1.422296,2.35155 0,0.4309 -0.35668,1.03327 -0.792622,1.33862 -0.761784,0.53357 -0.803353,0.51376 -1.06842,-0.50916 -0.151689,-0.58539 -0.393231,-1.06434 -0.536761,-1.06434 -0.14353,0 -1.027135,-0.63313 -1.963567,-1.40695 -0.936432,-0.77382 -2.307886,-1.5883 -3.047677,-1.80994 -1.204351,-0.36084 -1.358109,-0.5397 -1.469682,-1.70965 l -0.12461,-1.30666 2.483825,0.15941 c 2.027722,0.13013 2.574178,0.0505 2.975869,-0.43348 0.436841,-0.52636 0.287198,-0.79772 -1.333831,-2.41875 l -1.825874,-1.82588 -0.895935,0.96623 c -0.492764,0.53142 -1.116817,1.07147 -1.215285,1.07147 -0.09847,0 -0.193738,-0.69386 -0.640456,-1.2132 -0.346235,-0.40252 -0.810266,-0.6776 -0.873328,-0.93129 -0.07985,-0.32125 0.110457,-0.46568 0.415191,-1.18865 0.842448,-1.99868 1.948736,-2.3185 4.121166,-1.1914 0.959356,0.49773 2.576423,1.00352 3.593481,1.12397 1.235197,0.14629 2.147495,0.49547 2.747588,1.05161 0.656082,0.60804 1.309768,0.8326 2.423617,0.8326 0.838874,0 2.039088,0.10278 2.667135,0.22839 1.097858,0.21957 1.134734,0.28186 0.955939,1.61488 -0.102284,0.76257 -0.4361,1.66289 -0.741821,2.0007 -0.512491,0.5663 -0.471018,0.67693 0.531703,1.41827 1.383588,1.02293 2.13553,2.82322 2.156555,5.16318 0.02127,2.36563 -0.27493,2.87552 -1.189538,2.04781 -0.997095,-0.90235 -1.856737,-0.24741 -1.989677,1.5159 -0.08205,1.08827 0.08819,1.60218 0.776905,2.34532 0.485087,0.52341 1.182444,0.95167 1.549682,0.95167 0.367241,0 1.662317,0.64285 2.877957,1.42855 2.485567,1.6065 2.495867,1.25963 -0.12237,4.11913 -1.11905,1.22215 -2.203367,1.27817 -3.468826,0.17921 -0.551558,-0.47899 -0.640609,-0.44361 -0.953255,0.37871 -0.298852,0.78604 -1.319982,1.65551 -1.944282,1.65551 -0.110511,0 -0.160634,-0.49368 -0.11139,-1.09705 z M 75.553975,147.43653 c -0.873826,-0.65136 -1.706543,-2.03182 -2.129903,-3.08681 l -0.731866,-1.82376 0.155051,1.49939 c 0.0874,0.84515 0.01577,1.4133 -0.164169,1.30209 -0.153769,-1.15223 -0.47753,-1.31944 -0.979204,-1.8176 -1.164225,-1.11328 -1.641754,-3.03197 -1.157156,-4.64942 1.15591,-3.85808 5.420285,-5.5522 7.457286,-2.96258 1.005971,1.27889 0.841932,4.32204 -0.211531,3.92422 -0.172335,-0.0651 -0.356518,0.59605 -0.409295,1.46918 -0.187243,3.09766 1.879628,5.08447 5.371675,5.1636 1.242813,0.0282 2.112452,-0.2385 2.511036,0.15803 0.434923,0.43269 0.558647,0.63097 0.856303,0.89846 0.570621,0.51279 -1.549579,1.18824 -4.3729,1.18824 -2.008374,0 -2.926364,-0.18392 -4.241676,-0.84981 l -1.678598,-0.84982 c 0.320357,0.56411 0.592245,0.79662 1.244219,1.41479 0.18808,0.24526 -1.131545,-0.55139 -1.519272,-0.9782 z"
       id="path4716"
       inkscape:connector-curvature="0"
       sodipodi:nodetypes="csscccccsccccsccssccccccscccccccscccccccscccccsssccccsscsccscccccsccccscssssccsscsccccccsssscccsccccccccscccssccccccccccscssscccccc" />
  </g>
</svg>
