<?xml version="1.0" encoding="UTF-8" standalone="no"?>
<!-- Created with Inkscape (http://www.inkscape.org/) -->

<svg
   xmlns:dc="http://purl.org/dc/elements/1.1/"
   xmlns:cc="http://creativecommons.org/ns#"
   xmlns:rdf="http://www.w3.org/1999/02/22-rdf-syntax-ns#"
   xmlns:svg="http://www.w3.org/2000/svg"
   xmlns="http://www.w3.org/2000/svg"
   xmlns:sodipodi="http://sodipodi.sourceforge.net/DTD/sodipodi-0.dtd"
   xmlns:inkscape="http://www.inkscape.org/namespaces/inkscape"
   width="210mm"
   height="297mm"
   viewBox="0 0 210 297"
   version="1.1"
   id="svg8"
   inkscape:version="0.92.1 r15371"
   sodipodi:docname="newbie.svg">
  <defs
     id="defs2" />
  <sodipodi:namedview
     id="base"
     pagecolor="#ffffff"
     bordercolor="#666666"
     borderopacity="1.0"
     inkscape:pageopacity="0.0"
     inkscape:pageshadow="2"
     inkscape:zoom="1"
     inkscape:cx="385.58588"
     inkscape:cy="497.69944"
     inkscape:document-units="mm"
     inkscape:current-layer="layer1"
     showgrid="false"
     showguides="true"
     inkscape:guide-bbox="true"
     inkscape:window-width="1920"
     inkscape:window-height="1018"
     inkscape:window-x="-8"
     inkscape:window-y="-8"
     inkscape:window-maximized="1">
    <sodipodi:guide
       position="99.531169,145.32113"
       orientation="1,0"
       id="guide4530"
       inkscape:locked="false" />
    <sodipodi:guide
       position="100.20937,142.81882"
       orientation="0,1"
       id="guide4532"
       inkscape:locked="false" />
  </sodipodi:namedview>
  <metadata
     id="metadata5">
    <rdf:RDF>
      <cc:Work
         rdf:about="">
        <dc:format>image/svg+xml</dc:format>
        <dc:type
           rdf:resource="http://purl.org/dc/dcmitype/StillImage" />
        <dc:title></dc:title>
      </cc:Work>
    </rdf:RDF>
  </metadata>
  <g
     inkscape:label="Layer 1"
     inkscape:groupmode="layer"
     id="layer1">
    <path
       style="fill:#030303;stroke-width:0.35277778"
       d="m 93.551819,180.33701 c -0.594444,-0.25889 -1.667271,-1.15585 -2.384059,-1.99326 l -1.303252,-1.52255 -0.951756,0.71059 c -0.523466,0.39082 -1.165048,1.23116 -1.324681,1.84721 -0.09077,0.35028 0.306108,0.28467 -0.245047,0.88259 -0.360879,0.3915 -0.987673,0.33917 -1.853765,0.007 -0.708545,-0.27189 -0.751849,-2.61524 -0.07297,-3.94853 0.962491,-1.89028 2.268643,-7.46556 2.35198,-9.8735 0.0035,-0.10225 -0.190987,-0.0574 -0.317046,-0.28942 -0.459656,-0.84598 -0.0772,-2.02724 -0.06206,-2.16066 0.04749,-0.41869 -1.777283,-0.38615 -3.298185,-0.41193 -3.615593,-0.0613 -5.509696,1.85991 -5.509696,5.58846 0,2.09831 0.83788,3.9704 2.699023,6.03046 1.045013,1.15671 1.160487,1.42892 0.683767,1.61185 -0.315472,0.12106 -1.324719,0.0336 -2.242771,-0.19429 -4.068906,-1.01014 -6.422324,-4.10427 -7.652809,-10.06143 -0.602726,-2.91798 -0.458721,-4.20642 0.738142,-6.60431 0.924616,-1.85244 2.348684,-3.07802 4.875083,-4.19556 1.754077,-0.77591 8.813772,-1.74382 10.341166,-1.97443 0.02516,-0.004 -0.0171,-0.16823 -0.0171,-0.16823 -8.34e-4,-0.15075 0.113693,-0.26176 0.227711,-0.26591 1.56877,0.17452 3.633656,0.90241 3.974981,0.83002 0.202134,-0.18731 0.615683,-0.67955 1.361783,-1.32865 1.088344,-0.85923 1.988755,-1.39676 3.564386,-1.59135 1.050387,-0.16771 0.02131,-0.55847 1.284805,-0.62887 0.266942,-0.0149 1.769471,-0.0642 2.258351,-0.0498 1.60156,0.046 0.0755,0.50667 1.85363,0.75915 1.26962,0.42845 2.15967,0.94322 3.10812,1.78795 l 1.07837,1.07319 0.47077,-0.10915 4.68301,-0.93117 c 0.431,-0.063 0.41859,0.27213 0.42066,0.37904 9.6e-4,0.0495 -0.0212,0.0269 0.0392,0.0623 1.86641,1.09294 8.888,1.67883 11.08091,2.99386 2.49382,1.49548 3.93268,3.78027 4.13408,6.56454 0.44003,6.08332 -3.15384,12.35209 -7.70772,13.44455 -2.78615,0.66838 -3.10223,0.29875 -1.43516,-1.6783 2.61089,-3.09635 3.23533,-6.28953 1.74759,-8.9366 -1.07732,-1.91683 -2.6302,-2.57171 -5.59507,-2.35958 -1.30067,0.0931 -2.50921,0.25842 -2.68564,0.36746 -0.21335,0.13185 0.46947,1.26324 -0.0359,2.06463 -0.19734,0.31292 -0.20856,0.18153 -0.19734,0.31292 0.18152,2.12576 0.77761,5.15777 1.50945,7.22667 1.40094,3.96043 1.67746,5.8718 0.93823,6.4853 -0.62753,0.52081 -1.88657,0.62498 -2.29512,0.0713 -0.40267,-0.54569 -0.0345,-0.55545 -0.18384,-1.03153 -0.18498,-0.64773 -0.7084,-1.42148 -1.16316,-1.71945 -0.79447,-0.52055 -0.88545,-0.47883 -2.3237,1.06561 -1.7289,1.85655 -3.34964,2.3302 -4.37061,2.29831 -0.0785,-0.002 -0.15282,0.0115 -0.16789,-0.0252 -0.0537,-0.13086 0.0792,-0.5744 -0.32928,-1.41931 -0.21596,-0.52135 -0.5401,-0.79859 -0.86249,-1.12718 -0.82592,-0.65555 -1.83332,-0.76381 -2.751835,-0.76363 -0.888453,1.7e-4 -1.698595,0.18177 -2.419589,0.60286 -0.457256,0.34292 -0.95799,0.57892 -1.232188,1.67996 -0.07475,0.30016 -0.07003,0.76519 -0.07377,1.02946 -0.476859,0.0977 -1.24735,0.0717 -2.359626,-0.41239 z m 3.16841,-8.43265 c 0.493255,-0.36067 0.834386,-1.21959 0.688253,-1.25309 -0.516213,-0.11835 -1.313173,-0.28845 -2.255433,-0.56705 -0.929912,-0.24768 -2.101326,-0.95504 -2.615722,-1.0908 -0.148718,0.26323 -0.08799,0.15942 -0.119463,0.22329 0.01965,0.12678 0.166014,0.46514 0.333345,0.71906 0.596823,0.90568 2.302617,2.41646 2.96052,2.42693 0.398385,-0.0145 0.659275,-0.20298 1.0085,-0.45834 z m 10.061291,-1.04998 c 0.77456,-0.75415 0.97487,-1.04817 1.16554,-1.32698 0.046,-0.0673 -0.002,-0.13167 -0.0225,-0.27742 -0.0461,-0.0365 -0.1852,0.0403 -0.38779,0.0988 -0.26106,0.0753 -0.81296,0.26552 -1.38907,0.45543 -0.6399,0.21094 -0.89688,0.28627 -1.47904,0.4302 -1.14321,0.27249 -2.2941,0.40907 -2.24779,0.57731 0.0852,0.30957 0.12762,0.57667 0.51608,1.04474 0.28793,0.34693 0.655,0.63283 1.06945,0.54717 0.31671,-0.0654 1.67741,-0.48046 2.7751,-1.54922 z"
       id="path4496"
       inkscape:connector-curvature="0"
       sodipodi:nodetypes="cccccsccssscscccsccscccccsscccccssscccsccssscscccssccscsccccscccsccccscscscscc" />
  </g>
</svg>
