<?xml version="1.0" encoding="utf-8"?>
<!-- Generator: Adobe Illustrator 22.0.1, SVG Export Plug-In . SVG Version: 6.00 Build 0)  -->
<svg version="1.1"
	 id="svg8" inkscape:version="0.92.1 r15371" sodipodi:docname="newbie.svg" xmlns:cc="http://creativecommons.org/ns#" xmlns:dc="http://purl.org/dc/elements/1.1/" xmlns:inkscape="http://www.inkscape.org/namespaces/inkscape" xmlns:rdf="http://www.w3.org/1999/02/22-rdf-syntax-ns#" xmlns:sodipodi="http://sodipodi.sourceforge.net/DTD/sodipodi-0.dtd" xmlns:svg="http://www.w3.org/2000/svg"
	 xmlns="http://www.w3.org/2000/svg" xmlns:xlink="http://www.w3.org/1999/xlink" x="0px" y="0px" viewBox="0 0 159 86"
	 style="enable-background:new 0 0 159 86;" xml:space="preserve">
<style type="text/css">
	.st0{fill:#030303;}
</style>
<g id="layer1" inkscape:groupmode="layer" inkscape:label="Layer 1">
	
		<path id="path4496" inkscape:connector-curvature="0" sodipodi:nodetypes="cccccsccssscscccsccscccccsscccccssscccsccssscscccssccscsccccscccsccccscscscscc" class="st0" d="
		M62.1,84.7c-1.7-0.7-4.7-3.3-6.8-5.7l-3.7-4.3l-2.7,2c-1.5,1.1-3.3,3.5-3.8,5.3c-0.3,1,0.9,0.8-0.7,2.5c-1,1.1-2.8,1-5.3,0
		c-2-0.8-2.1-7.4-0.2-11.2c2.7-5.4,6.5-21.2,6.7-28.1c0-0.3-0.5-0.2-0.9-0.8c-1.3-2.4-0.2-5.8-0.2-6.1c0.1-1.2-5.1-1.1-9.4-1.2
		c-10.3-0.2-15.7,5.3-15.7,15.9c0,6,2.4,11.3,7.7,17.2c3,3.3,3.3,4.1,1.9,4.6c-0.9,0.3-3.8,0.1-6.4-0.6C11.2,71.2,4.5,62.4,1,45.5
		c-1.7-8.3-1.3-12,2.1-18.8c2.6-5.3,6.7-8.8,13.9-11.9c5-2.2,25.1-5,29.4-5.6c0.1,0,0-0.5,0-0.5c0-0.4,0.3-0.7,0.6-0.8
		c4.5,0.5,10.3,2.6,11.3,2.4c0.6-0.5,1.8-1.9,3.9-3.8c3.1-2.4,5.7-4,10.1-4.5c3-0.5,0.1-1.6,3.7-1.8c0.8,0,5-0.2,6.4-0.1
		c4.6,0.1,0.2,1.4,5.3,2.2c3.6,1.2,6.1,2.7,8.8,5.1l3.1,3.1L101,10l13.3-2.7c1.2-0.2,1.2,0.8,1.2,1.1c0,0.1-0.1,0.1,0.1,0.2
		c5.3,3.1,25.3,4.8,31.5,8.5c7.1,4.3,11.2,10.8,11.8,18.7c1.3,17.3-9,35.2-21.9,38.3c-7.9,1.9-8.8,0.9-4.1-4.8
		c7.4-8.8,9.2-17.9,5-25.4c-3.1-5.5-7.5-7.3-15.9-6.7c-3.7,0.3-7.1,0.7-7.6,1c-0.6,0.4,1.3,3.6-0.1,5.9c-0.6,0.9-0.6,0.5-0.6,0.9
		c0.5,6.1,2.2,14.7,4.3,20.6c4,11.3,4.8,16.7,2.7,18.5c-1.8,1.5-5.4,1.8-6.5,0.2c-1.1-1.6-0.1-1.6-0.5-2.9c-0.5-1.8-2-4-3.3-4.9
		c-2.3-1.5-2.5-1.4-6.6,3c-4.9,5.3-9.5,6.6-12.4,6.5c-0.2,0-0.4,0-0.5-0.1c-0.2-0.4,0.2-1.6-0.9-4c-0.6-1.5-1.5-2.3-2.5-3.2
		c-2.4-1.9-5.2-2.2-7.8-2.2c-2.5,0-4.8,0.5-6.9,1.7c-1.3,1-2.7,1.6-3.5,4.8c-0.2,0.9-0.2,2.2-0.2,2.9C67.5,86.2,65.3,86.1,62.1,84.7
		L62.1,84.7z M71.2,60.7c1.4-1,2.4-3.5,2-3.6c-1.5-0.3-3.7-0.8-6.4-1.6c-2.6-0.7-6-2.7-7.4-3.1c-0.4,0.7-0.3,0.5-0.3,0.6
		c0.1,0.4,0.5,1.3,0.9,2c1.7,2.6,6.6,6.9,8.4,6.9C69.4,62,70.2,61.4,71.2,60.7L71.2,60.7z M99.8,57.7c2.2-2.1,2.8-3,3.3-3.8
		c0.1-0.2,0-0.4-0.1-0.8c-0.1-0.1-0.5,0.1-1.1,0.3c-0.7,0.2-2.3,0.8-4,1.3c-1.8,0.6-2.6,0.8-4.2,1.2c-3.3,0.8-6.5,1.2-6.4,1.6
		c0.2,0.9,0.4,1.6,1.5,3c0.8,1,1.9,1.8,3,1.6C92.8,61.9,96.7,60.8,99.8,57.7L99.8,57.7z"/>
</g>
<sodipodi:namedview  bordercolor="#666666" borderopacity="1.0" id="base" inkscape:current-layer="layer1" inkscape:cx="385.58588" inkscape:cy="497.69944" inkscape:document-units="mm" inkscape:guide-bbox="true" inkscape:pageopacity="0.0" inkscape:pageshadow="2" inkscape:window-height="1018" inkscape:window-maximized="1" inkscape:window-width="1920" inkscape:window-x="-8" inkscape:window-y="-8" inkscape:zoom="1" pagecolor="#ffffff" showgrid="false" showguides="true">
	<sodipodi:guide  id="guide4530" inkscape:locked="false" orientation="1,0" position="99.531169,145.32113"></sodipodi:guide>
	<sodipodi:guide  id="guide4532" inkscape:locked="false" orientation="0,1" position="100.20937,142.81882"></sodipodi:guide>
</sodipodi:namedview>
</svg>
