<?xml version="1.0" encoding="UTF-8" standalone="no"?>
<!-- Created with Inkscape (http://www.inkscape.org/) -->

<svg
   xmlns:dc="http://purl.org/dc/elements/1.1/"
   xmlns:cc="http://creativecommons.org/ns#"
   xmlns:rdf="http://www.w3.org/1999/02/22-rdf-syntax-ns#"
   xmlns:svg="http://www.w3.org/2000/svg"
   xmlns="http://www.w3.org/2000/svg"
   xmlns:sodipodi="http://sodipodi.sourceforge.net/DTD/sodipodi-0.dtd"
   xmlns:inkscape="http://www.inkscape.org/namespaces/inkscape"
   width="210mm"
   height="297mm"
   viewBox="0 0 210 297"
   version="1.1"
   id="svg8"
   inkscape:version="0.92.1 r15371"
   sodipodi:docname="money.svg">
  <defs
     id="defs2" />
  <sodipodi:namedview
     id="base"
     pagecolor="#ffffff"
     bordercolor="#666666"
     borderopacity="1.0"
     inkscape:pageopacity="0.0"
     inkscape:pageshadow="2"
     inkscape:zoom="1"
     inkscape:cx="748.2363"
     inkscape:cy="414.15631"
     inkscape:document-units="mm"
     inkscape:current-layer="layer1"
     showgrid="false"
     showguides="true"
     inkscape:guide-bbox="true"
     inkscape:window-width="1920"
     inkscape:window-height="1018"
     inkscape:window-x="-8"
     inkscape:window-y="-8"
     inkscape:window-maximized="1">
    <sodipodi:guide
       position="99.531169,145.32113"
       orientation="1,0"
       id="guide4530"
       inkscape:locked="false" />
    <sodipodi:guide
       position="100.20937,142.81882"
       orientation="0,1"
       id="guide4532"
       inkscape:locked="false" />
  </sodipodi:namedview>
  <metadata
     id="metadata5">
    <rdf:RDF>
      <cc:Work
         rdf:about="">
        <dc:format>image/svg+xml</dc:format>
        <dc:type
           rdf:resource="http://purl.org/dc/dcmitype/StillImage" />
        <dc:title></dc:title>
      </cc:Work>
    </rdf:RDF>
  </metadata>
  <g
     inkscape:label="Layer 1"
     inkscape:groupmode="layer"
     id="layer1">
    <path
       style="fill:#020202;stroke-width:0.35277778"
       d="m 83.119685,228.83304 c -2.37327,-0.95056 -3.953821,-2.96896 -4.46701,-5.70449 -0.09091,-0.48459 -0.13858,-1.13276 -0.301867,-1.35369 -0.154403,-0.2089 -0.419184,-0.003 -0.684512,-0.041 -0.919595,-0.1334 -3.842535,-3.70459 -5.051343,-6.17164 -1.04797,-2.13879 -0.960774,-2.61673 0.908933,-4.98209 1.326428,-1.67806 2.287408,-1.9103 1.497303,-4.20592 -0.53575,-1.55661 -0.429613,-2.4974 0.407139,-3.49183 0.74584,-0.88638 1.573867,-0.80178 1.401377,-1.86471 -0.191672,-1.18113 -1.108268,-1.93668 0.225761,-3.20572 0.712358,-0.6731 1.473701,-0.54283 2.180381,-2.21025 -0.423694,-1.37164 0.81393,-2.01091 2.774296,-2.98641 3.03546,-1.51049 8.090669,-3.45164 10.936111,-4.19936 2.741066,-0.7203 3.527778,-1.31165 3.527778,-2.65176 0,-1.7136 1.074924,-2.41477 3.701958,-2.41477 2.27979,0 2.29594,-0.007 3.34821,-1.45965 1.49573,-2.06481 1.86589,-3.62345 1.22487,-5.15762 -0.7104,-1.70023 -0.64782,-2.30618 0.33334,-3.22793 1.81177,-1.70207 5.39334,-1.21476 10.48501,1.42659 3.52662,1.82946 5.02499,3.15714 8.00746,7.09525 5.33509,7.04457 6.41402,10.74854 3.57373,12.26861 -0.33235,0.17787 -3.12353,0.81388 -6.20262,1.41334 -6.33951,1.23423 -8.24418,1.73352 -8.24418,2.16114 0,0.55927 -2.82154,3.11916 -3.43958,3.12063 -0.43702,0.001 -1.30997,1.36649 -2.98835,4.67431 -3.14179,6.19199 -4.5797,8.30444 -6.662592,9.78811 -2.143615,1.52692 -3.490034,3.39445 -3.490034,4.8408 0,1.70606 -0.327995,2.21475 -1.428034,2.21475 -0.549874,0 -1.097883,-0.15875 -1.217799,-0.35277 -0.426343,-0.68984 -0.881945,-0.33722 -0.881945,0.68259 0,2.25692 -1.864963,4.91232 -4.133808,5.88586 -1.284024,0.55096 -4.094085,0.60866 -5.339983,0.10965 z m -1.02217,-12.67689 c 2.383729,-1.44963 5.183699,-1.25597 7.832775,0.54173 0.75501,0.51236 1.120891,0.96334 1.239883,0.87759 0.078,-0.0562 -0.07876,-0.41007 0.01219,-0.78289 0.09841,-0.40341 0.502613,-1.84541 1.116916,-3.17816 l 1.116915,-2.42318 -0.709951,-0.95635 c -1.317466,-1.7747 -1.841041,-1.82922 -6.015667,-0.62641 -3.258314,0.93879 -4.137124,1.36145 -6.179741,2.97209 -1.309687,1.03271 -2.38125,2.0433 -2.38125,2.24575 0,0.20246 0.184125,1.36738 0.409166,2.58873 l 0.409166,2.22062 1.012615,-1.39788 c 0.556937,-0.76883 1.518579,-1.70556 2.136981,-2.08164 z"
       id="path4681"
       inkscape:connector-curvature="0"
       sodipodi:nodetypes="ccsccsscsccccsscccccccscccsscsccccssscccssccccc" />
  </g>
</svg>
