<?xml version="1.0" encoding="utf-8"?>
<!-- Generator: Adobe Illustrator 22.0.1, SVG Export Plug-In . SVG Version: 6.00 Build 0)  -->
<svg version="1.1"
	 id="svg8" inkscape:version="0.92.1 r15371" sodipodi:docname="money.svg" xmlns:cc="http://creativecommons.org/ns#" xmlns:dc="http://purl.org/dc/elements/1.1/" xmlns:inkscape="http://www.inkscape.org/namespaces/inkscape" xmlns:rdf="http://www.w3.org/1999/02/22-rdf-syntax-ns#" xmlns:sodipodi="http://sodipodi.sourceforge.net/DTD/sodipodi-0.dtd" xmlns:svg="http://www.w3.org/2000/svg"
	 xmlns="http://www.w3.org/2000/svg" xmlns:xlink="http://www.w3.org/1999/xlink" x="0px" y="0px" viewBox="0 0 163 162.8"
	 style="enable-background:new 0 0 163 162.8;" xml:space="preserve">
<style type="text/css">
	.st0{fill:#020202;}
</style>
<sodipodi:namedview  bordercolor="#666666" borderopacity="1.0" id="base" inkscape:current-layer="layer1" inkscape:cx="748.2363" inkscape:cy="414.15631" inkscape:document-units="mm" inkscape:guide-bbox="true" inkscape:pageopacity="0.0" inkscape:pageshadow="2" inkscape:window-height="1018" inkscape:window-maximized="1" inkscape:window-width="1920" inkscape:window-x="-8" inkscape:window-y="-8" inkscape:zoom="1" pagecolor="#ffffff" showgrid="false" showguides="true">
	<sodipodi:guide  id="guide4530" inkscape:locked="false" orientation="1,0" position="99.531169,145.32113"></sodipodi:guide>
	<sodipodi:guide  id="guide4532" inkscape:locked="false" orientation="0,1" position="100.20937,142.81882"></sodipodi:guide>
</sodipodi:namedview>
<g id="layer1" inkscape:groupmode="layer" inkscape:label="Layer 1">
	
		<path id="path4681" inkscape:connector-curvature="0" sodipodi:nodetypes="ccsccsscsccccsscccccccscccsscsccccssscccssccccc" class="st0" d="
		M32.1,161.8c-6.8-2.7-11.4-8.5-12.8-16.4c-0.3-1.4-0.4-3.3-0.9-3.9c-0.4-0.6-1.2,0-2-0.1c-2.6-0.4-11-10.6-14.5-17.7
		c-3-6.1-2.8-7.5,2.6-14.3c3.8-4.8,6.6-5.5,4.3-12.1c-1.5-4.5-1.2-7.2,1.2-10c2.1-2.5,4.5-2.3,4-5.4c-0.6-3.4-3.2-5.6,0.6-9.2
		c2-1.9,4.2-1.6,6.3-6.4c-1.2-3.9,2.3-5.8,8-8.6c8.7-4.3,23.2-9.9,31.4-12.1c7.9-2.1,10.1-3.8,10.1-7.6c0-4.9,3.1-6.9,10.6-6.9
		c6.6,0,6.6,0,9.6-4.2c4.3-5.9,5.4-10.4,3.5-14.8c-2-4.9-1.9-6.6,1-9.3c5.2-4.9,15.5-3.5,30.1,4.1c10.1,5.3,14.4,9.1,23,20.4
		c15.3,20.2,18.4,30.9,10.3,35.2c-1,0.5-9,2.3-17.8,4.1c-18.2,3.5-23.7,5-23.7,6.2c0,1.6-8.1,9-9.9,9c-1.3,0-3.8,3.9-8.6,13.4
		c-9,17.8-13.2,23.9-19.1,28.1c-6.2,4.4-10,9.8-10,13.9c0,4.9-0.9,6.4-4.1,6.4c-1.6,0-3.2-0.5-3.5-1c-1.2-2-2.5-1-2.5,2
		c0,6.5-5.4,14.1-11.9,16.9C43.8,163.1,35.7,163.3,32.1,161.8L32.1,161.8z M29.2,125.4c6.8-4.2,14.9-3.6,22.5,1.6
		c2.2,1.5,3.2,2.8,3.6,2.5c0.2-0.2-0.2-1.2,0-2.2c0.3-1.2,1.4-5.3,3.2-9.1l3.2-7l-2-2.7c-3.8-5.1-5.3-5.3-17.3-1.8
		c-9.4,2.7-11.9,3.9-17.8,8.5c-3.8,3-6.8,5.9-6.8,6.5c0,0.6,0.5,3.9,1.2,7.4l1.2,6.4l2.9-4C24.6,129.2,27.4,126.5,29.2,125.4
		L29.2,125.4z"/>
</g>
</svg>
