<?xml version="1.0" encoding="utf-8"?>
<!-- Generator: Adobe Illustrator 22.0.1, SVG Export Plug-In . SVG Version: 6.00 Build 0)  -->
<svg version="1.1"
	 id="svg8" inkscape:version="0.92.1 r15371" sodipodi:docname="fractions.svg" xmlns:cc="http://creativecommons.org/ns#" xmlns:dc="http://purl.org/dc/elements/1.1/" xmlns:inkscape="http://www.inkscape.org/namespaces/inkscape" xmlns:rdf="http://www.w3.org/1999/02/22-rdf-syntax-ns#" xmlns:sodipodi="http://sodipodi.sourceforge.net/DTD/sodipodi-0.dtd" xmlns:svg="http://www.w3.org/2000/svg"
	 xmlns="http://www.w3.org/2000/svg" xmlns:xlink="http://www.w3.org/1999/xlink" x="0px" y="0px" viewBox="0 0 164 152.7"
	 style="enable-background:new 0 0 164 152.7;" xml:space="preserve">
<style type="text/css">
	.st0{fill:#020202;}
</style>
<sodipodi:namedview  bordercolor="#666666" borderopacity="1.0" id="base" inkscape:current-layer="layer1" inkscape:cx="500.78349" inkscape:cy="434.1828" inkscape:document-units="mm" inkscape:guide-bbox="true" inkscape:pageopacity="0.0" inkscape:pageshadow="2" inkscape:window-height="1018" inkscape:window-maximized="1" inkscape:window-width="1920" inkscape:window-x="-8" inkscape:window-y="-8" inkscape:zoom="1.4142136" pagecolor="#ffffff" showgrid="false" showguides="true">
	<sodipodi:guide  id="guide4530" inkscape:locked="false" orientation="1,0" position="99.531169,145.32113"></sodipodi:guide>
	<sodipodi:guide  id="guide4532" inkscape:locked="false" orientation="0,1" position="100.20937,142.81882"></sodipodi:guide>
</sodipodi:namedview>
<g id="layer1" inkscape:groupmode="layer" inkscape:label="Layer 1">
	
		<path id="path4703" inkscape:connector-curvature="0" sodipodi:nodetypes="cccsccccccsscccccscscsccssccscscsccsscccccsssccccccc" class="st0" d="
		M111.1,149.9c7.9-4.6,9-5.7,11.2-10.8c1.1-2.5,2.5-5.2,3.2-6c1-1.2,0.7-3-1.9-9.7c-1.7-4.5-3.5-8.5-3.8-8.9
		c-0.4-0.4-4.5,0.3-9.1,1.5c-6.8,1.7-8.9,1.9-10.9,1c-2.6-1.2-4.7-4.7-4.7-7.7c0-0.9-1.1-3.5-2.5-5.7c-3.3-5.3-3.2-6.3,1-7.1
		c4.4-0.8,5.8-3.4,1.8-2.4c-4.1,0.9-7.6-2.7-7-5.6c0.5-2.7-0.6-3.8-4.5-4.8c-5.4-1.3-4.6-5.9,2.9-16.9l4.7-6.8l-1.8-3.3
		c-2.1-3.9-1.7-7.1,2-15.3c1.6-3.6,1.9-5.3,1.1-5.3c-5,0-3-6,4.7-14.6c5.1-5.7,12.6-10.1,21.1-12.5l5.9-1.6l-4.7-3.2
		c-6.7-4.6-5.8-5.6,1.5-1.5c17.5,9.9,29.3,23,36.7,40.7c7.3,17.6,8.2,39,2.3,56.7c-7.2,21.5-21.8,38.4-41.6,48.4
		C108.7,153.3,103.6,154.3,111.1,149.9L111.1,149.9z M25.2,133.8c-8.8-8.4-15.1-17.6-19.2-27.9C-5,78.2-0.7,47.3,17.4,24.2
		c5.2-6.6,7.5-8.6,7.5-6.3c0,0.5-0.7,1.4-1.5,2.1c-2.5,2-1.7,3,2.3,3c5.9,0,13.8,2.8,17.7,6.1c3.7,3.3,6,9.2,5,13.2
		c-0.4,1.6,0.5,5,2.5,9.7c2.7,6.4,3,7.6,1.9,10.5c-1.1,3-0.9,3.6,3.1,9.2c5.4,7.6,5.4,11.2,0.1,12.9c-2.5,0.8-3.6,1.8-3.9,3.5
		C51.7,91,50.3,92,46.6,92c-1.6,0-2.5,0.4-2.2,1c0.3,0.6,1.5,1,2.5,1c3.3,0,5,2.8,5,8.1c0,6.2-2.2,10.6-5.7,11.5
		c-1.6,0.4-5.6-0.1-9.7-1.1c-7.9-2-7.2-2.4-12.3,6.3c-2.3,3.9-2.4,4.5-1,6c0.8,0.9,2.3,3.3,3.3,5.2s3.1,5.2,4.7,7.3
		C35.7,143.1,33.5,141.8,25.2,133.8L25.2,133.8z"/>
</g>
</svg>
