<?xml version="1.0" encoding="UTF-8" standalone="no"?>
<!-- Created with Inkscape (http://www.inkscape.org/) -->

<svg
   xmlns:dc="http://purl.org/dc/elements/1.1/"
   xmlns:cc="http://creativecommons.org/ns#"
   xmlns:rdf="http://www.w3.org/1999/02/22-rdf-syntax-ns#"
   xmlns:svg="http://www.w3.org/2000/svg"
   xmlns="http://www.w3.org/2000/svg"
   xmlns:sodipodi="http://sodipodi.sourceforge.net/DTD/sodipodi-0.dtd"
   xmlns:inkscape="http://www.inkscape.org/namespaces/inkscape"
   width="210mm"
   height="297mm"
   viewBox="0 0 210 297"
   version="1.1"
   id="svg8"
   inkscape:version="0.92.1 r15371"
   sodipodi:docname="fractions.svg">
  <defs
     id="defs2" />
  <sodipodi:namedview
     id="base"
     pagecolor="#ffffff"
     bordercolor="#666666"
     borderopacity="1.0"
     inkscape:pageopacity="0.0"
     inkscape:pageshadow="2"
     inkscape:zoom="1.4142136"
     inkscape:cx="500.78349"
     inkscape:cy="434.1828"
     inkscape:document-units="mm"
     inkscape:current-layer="layer1"
     showgrid="false"
     showguides="true"
     inkscape:guide-bbox="true"
     inkscape:window-width="1920"
     inkscape:window-height="1018"
     inkscape:window-x="-8"
     inkscape:window-y="-8"
     inkscape:window-maximized="1">
    <sodipodi:guide
       position="99.531169,145.32113"
       orientation="1,0"
       id="guide4530"
       inkscape:locked="false" />
    <sodipodi:guide
       position="100.20937,142.81882"
       orientation="0,1"
       id="guide4532"
       inkscape:locked="false" />
  </sodipodi:namedview>
  <metadata
     id="metadata5">
    <rdf:RDF>
      <cc:Work
         rdf:about="">
        <dc:format>image/svg+xml</dc:format>
        <dc:type
           rdf:resource="http://purl.org/dc/dcmitype/StillImage" />
        <dc:title></dc:title>
      </cc:Work>
    </rdf:RDF>
  </metadata>
  <g
     inkscape:label="Layer 1"
     inkscape:groupmode="layer"
     id="layer1">
    <path
       style="fill:#020202;stroke-width:0.35277778"
       d="m 113.76122,181.56525 c 2.77052,-1.63888 3.16272,-2.01807 3.94556,-3.81477 0.38043,-0.87312 0.89259,-1.82562 1.13812,-2.11666 0.36692,-0.43492 0.24922,-1.04273 -0.66083,-3.41263 -0.60899,-1.5859 -1.21948,-2.99458 -1.35663,-3.13039 -0.13716,-0.13581 -1.58841,0.0946 -3.225,0.51205 -2.38494,0.60832 -3.15057,0.67927 -3.85687,0.35746 -0.90313,-0.4115 -1.66318,-1.65281 -1.6664,-2.72156 -0.001,-0.33042 -0.39291,-1.23577 -0.87093,-2.01188 -1.15979,-1.88301 -1.1129,-2.21948 0.34747,-2.49345 1.55011,-0.2908 2.05652,-1.18535 0.62458,-0.85794 -1.437,0.32856 -2.67026,-0.95761 -2.47461,-1.98108 0.18053,-0.94438 -0.19756,-1.34783 -1.56994,-1.67526 -1.90601,-0.45475 -1.62236,-2.09663 1.0323,-5.97529 l 1.64241,-2.3997 -0.63546,-1.17998 c -0.73156,-1.35841 -0.58541,-2.48957 0.69741,-5.39771 0.56259,-1.27538 0.68022,-1.85209 0.37778,-1.85209 -1.74709,0 -1.06526,-2.12734 1.64962,-5.14695 1.81456,-2.01821 4.43699,-3.56485 7.44497,-4.39084 l 2.09017,-0.57396 -1.6492,-1.13468 c -2.37595,-1.6347 -2.02966,-1.98308 0.53196,-0.53516 6.17384,3.48965 10.33681,8.10898 12.93213,14.34979 2.58344,6.21221 2.88366,13.76739 0.79513,20.00958 -2.53504,7.57674 -7.67857,13.5522 -14.67793,17.05198 -3.44964,1.72487 -5.24908,2.08473 -2.60581,0.52112 z M 83.475298,175.8984 c -3.088859,-2.97193 -5.312044,-6.21021 -6.76353,-9.85173 -3.885875,-9.74898 -2.362987,-20.63465 4.029753,-28.80485 1.817728,-2.32313 2.645021,-3.01769 2.645021,-2.22064 0,0.17027 -0.238125,0.50721 -0.529167,0.74875 -0.86916,0.72134 -0.60872,1.05833 0.817915,1.05833 2.074301,0 4.88266,0.9743 6.237693,2.16404 1.321601,1.16038 2.102145,3.24161 1.746767,4.65754 -0.138638,0.55238 0.168981,1.7497 0.877029,3.41359 0.962113,2.26093 1.042407,2.69597 0.681696,3.6935 -0.382007,1.05642 -0.310912,1.26961 1.082181,3.24501 1.886756,2.67542 1.892968,3.9648 0.022,4.56639 -0.881956,0.28358 -1.270082,0.63634 -1.358482,1.23472 -0.150586,1.01929 -0.624501,1.35438 -1.925533,1.36148 -0.569736,0.003 -0.898281,0.15535 -0.772929,0.35818 0.119916,0.19402 0.514821,0.35277 0.877566,0.35277 1.160322,0 1.768268,0.985 1.768268,2.86494 0,2.20037 -0.773006,3.75279 -2.025131,4.06705 -0.555619,0.13945 -1.977618,-0.0243 -3.405424,-0.39208 -2.784031,-0.71718 -2.530774,-0.8459 -4.339389,2.20553 -0.805056,1.35827 -0.842861,1.57536 -0.3686,2.11667 0.290654,0.33175 0.807481,1.1588 1.148505,1.83789 0.341024,0.6791 1.087882,1.83004 1.659685,2.55764 1.601715,2.03815 0.818403,1.57887 -2.10589,-1.23472 z"
       id="path4703"
       inkscape:connector-curvature="0"
       sodipodi:nodetypes="cccsccccccsscccccscscsccssccscscsccsscccccsssccccccc" />
  </g>
</svg>
