<!-- Generated by IcoMoon.io -->
<svg version="1.1" xmlns="http://www.w3.org/2000/svg" width="110.33" height="160" viewBox="0 0 110.33 160">
<title></title>
<g id="icomoon-ignore">
</g>
<path fill="#000" d="M17.931 158.472c-2.672-2.096-2.406-3.017-2.704-4.929-0.579-3.709 0.701-5.894 4.421-7.659 0.826-0.392 1.994-0.512 2.976-0.293 0.888 0.199 2.284-1.544 2.284-1.544 0.394 0.464 0.701 0.984 1.989 1.935 0.889 0.657 2.511 1.376 2.511 1.376-0.291 0.68-0.889 1.554-0.574 2.002 0.969 1.379 0.989 1.647 1.154 3.084 0.017 3.347-1.956 6.099-4.174 7.094-2.124 0.954-6.058 0.364-7.883-1.067zM32.111 147.309c-1.721-0.501-5.784-3.501-9.029-6.669-3.616-3.531-6.476-5.539-7.389-5.189-0.874 0.335-2.148-0.434-3.084-1.864-1.444-2.204-1.951-2.337-5.346-1.399-3.321 0.917-3.962 0.774-5.591-1.238-2.567-3.171-2.355-4.744 1.885-13.962 4.421-9.612 7.174-13.743 9.157-13.743 0.799 0 2.587 2.239 3.971 4.972 2.524 4.98 6.297 8.371 9.316 8.371 0.887 0 2.572 1.629 3.747 3.619 2.302 3.901 4.707 5.619 7.866 5.619 1.096 0 2.719 1.039 3.606 2.309 1.409 2.022 1.974 1.719 2.022 0.082-0.056-0.486-0.346-0.847 1.032-1.341 1.507-0.541 2.242 0.814 3.081 2.149 1.681 2.669 0.111 5.014-3.356 5.014-1.712 0-3.111 0.462-3.111 1.026s1.2 1.806 1.954 0.802c0.592-0.786 2.439-0.052 2.439-0.052-0.704 2.667-3.077 4.429-4.776 3.776-0.801-0.197-1.809 0.131-1.514 0.677 0.304 0.559 1.231 1.519 2.072 0.357 0.439-0.607 2.312-0.078 2.312-0.078-0.759 2.584-1.934 3.394-4.111 3.796-2.168 0.362-1.771 0.694-0.333 1.346 0.356-0.379 1.694-0.66 2.374-0.237 0.176 0.109-0.447 1.181-0.587 1.452-0.791 1.28-4.202 1.689-8.604 0.409zM59.77 138.381c-0.621-0.416-1.581-2.139-2.132-3.834-0.734-2.251-1.742-3.167-3.746-3.404-1.511-0.179-2.744-0.969-2.744-1.761 0-1.957-3.282-3.56-7.284-3.56-3.581 0-12.329-5.019-14.736-8.454-0.787-1.124-1.179-2.704-0.869-3.51 0.214-0.556 0.659-1.656 1.236-1.303 1.932 1.186 1.433 1.284 1.474 2.074 0.639 0.529 1.979 1.394 0.749-0.947-0.691-1.314-0.959-3.159-0.599-4.099 0.334-0.869 0.817-1.287 1.324-0.948 0.353 0.237 1.402 0.959 1.299 1.797 2.147 2.794 2.731 2.147 0.824-0.912-1.257-2.010-0.584-5.254 1.087-5.254 0.544 0 1.776 1.781 1.776 1.781-0.127 0.992 1.075 2.054 1.592 2.054s0.032-1.349-0.914-3.332c-1.35-2.832-1.452-3.871-0.469-4.852 1.264-1.264 2.742-0.939 4.411 1.651 0 0-0.282 0.594 0.276 1.677 0.937 3.965 8.581 8.371 13.024 6.259 1.484-0.707 5.549 1.147 7.816 2.763 2.506 1.784 4.614 2.264 9.949 2.264h6.769v3.487c0 2.57-1.147 4.907-4.362 8.891-9.386 11.631-12.316 13.764-15.754 11.469zM60.005 108.829c-2.184-0.802-5.022-1.192-6.304-0.871-3.277 0.823-8.712-2.197-8.712-4.839 0-1.259-2.145-4.054-5.257-6.853-5.434-4.884-8.632-10.701-9.758-17.744-0.784-4.904 0.559-4.644 4.899-0.912 2.524 2.015 1.999 1.561 3.374 2.844 0.657 0.613 0.842 2.669 0.996 3.516 0.889 4.884 7.439 12.261 8.873 9.992 1.716-2.712 1.022-5.91-1.714-7.904-1.634-1.299-2.174-4.684 1.262-7.934 0 0 2.019 1.516 3.16 0.791 2.789-1.659 4.349-5.397 6.136-7.776 4.614-6.151 15.979-24.413 26.012-41.792 4.726-8.184 9.962-16.607 11.634-18.716 3.796-4.783 13.431-11.529 15.044-10.531 1.414 0.874 0.474 11.216-1.537 16.914-0.701 1.991-5.742 11.469-11.199 21.064s-13.254 24.055-17.326 32.135c-6.579 13.054-8.33 15.073-9.704 17.994-0.289 0.451-0.516 1.067-0.584 1.712-0.109 1.049 2.094 1.913 2.094 1.913 0.699-0.574-2.897 6.509-5.869 5.398-3.236-1.353-3.159-1.009-5.112 1.088-1.355 1.454-1.744 2.602-1.101 3.246 1.507 1.507 11.773 2.069 14.188 0.776 2.629-0.972 3.094-0.732 4.209-0.459 0.809 0.199 0.877 0.198 2.879 1.227 2.618 1.121 4.274 2.63 3.931 3.184-1.011 1.636-10.794 4.147-15.859 4.069-2.579-0.039-6.477-0.727-8.66-1.529z"></path>
</svg>
