<?xml version="1.0" encoding="utf-8"?>
<!-- Generator: Adobe Illustrator 22.0.1, SVG Export Plug-In . SVG Version: 6.00 Build 0)  -->
<svg version="1.1"
	 id="svg8" inkscape:version="0.92.1 r15371" sodipodi:docname="figth.svg" xmlns:cc="http://creativecommons.org/ns#" xmlns:dc="http://purl.org/dc/elements/1.1/" xmlns:inkscape="http://www.inkscape.org/namespaces/inkscape" xmlns:rdf="http://www.w3.org/1999/02/22-rdf-syntax-ns#" xmlns:sodipodi="http://sodipodi.sourceforge.net/DTD/sodipodi-0.dtd" xmlns:svg="http://www.w3.org/2000/svg"
	 xmlns="http://www.w3.org/2000/svg" xmlns:xlink="http://www.w3.org/1999/xlink" x="0px" y="0px" viewBox="0 0 111 161"
	 style="enable-background:new 0 0 111 161;" xml:space="preserve">
<style type="text/css">
	.st0{fill:#090909;}
</style>
<g id="layer1" inkscape:groupmode="layer" inkscape:label="Layer 1">
	
		<path id="path4668" inkscape:connector-curvature="0" sodipodi:nodetypes="sscsscsscsscscccccscsssccscsssscsssccscccccsscccscccscsssccsccsscscccccsccscscscsssccsscssccccscccccc" class="st0" d="
		M18,159.4c-2.7-2.1-2.4-3-2.7-5c-0.6-3.7,0.7-5.9,4.4-7.7c0.8-0.4,2-0.5,3-0.3c0.9,0.2,2.3-1.6,2.3-1.6c0.4,0.5,0.7,1,2,1.9
		c0.9,0.7,2.5,1.4,2.5,1.4c-0.3,0.7-0.9,1.6-0.6,2c1,1.4,1,1.7,1.2,3.1c0,3.4-2,6.1-4.2,7.1C23.8,161.5,19.9,160.9,18,159.4
		L18,159.4z M32.3,148.2c-1.7-0.5-5.8-3.5-9.1-6.7c-3.6-3.6-6.5-5.6-7.4-5.2c-0.9,0.3-2.2-0.4-3.1-1.9c-1.5-2.2-2-2.4-5.4-1.4
		c-3.3,0.9-4,0.8-5.6-1.2c-2.6-3.2-2.4-4.8,1.9-14c4.4-9.7,7.2-13.8,9.2-13.8c0.8,0,2.6,2.3,4,5c2.5,5,6.3,8.4,9.4,8.4
		c0.9,0,2.6,1.6,3.8,3.6c2.3,3.9,4.7,5.7,7.9,5.7c1.1,0,2.7,1,3.6,2.3c1.4,2,2,1.7,2,0.1c-0.1-0.5-0.3-0.9,1-1.4
		c1.5-0.5,2.3,0.8,3.1,2.2c1.7,2.7,0.1,5-3.4,5c-1.7,0-3.1,0.5-3.1,1c0,0.6,1.2,1.8,2,0.8c0.6-0.8,2.5-0.1,2.5-0.1
		c-0.7,2.7-3.1,4.5-4.8,3.8c-0.8-0.2-1.8,0.1-1.5,0.7c0.3,0.6,1.2,1.5,2.1,0.4c0.4-0.6,2.3-0.1,2.3-0.1c-0.8,2.6-1.9,3.4-4.1,3.8
		c-2.2,0.4-1.8,0.7-0.3,1.4c0.4-0.4,1.7-0.7,2.4-0.2c0.2,0.1-0.4,1.2-0.6,1.5C40.2,149.1,36.7,149.5,32.3,148.2L32.3,148.2z
		 M60.1,139.2c-0.6-0.4-1.6-2.2-2.1-3.9c-0.7-2.3-1.8-3.2-3.8-3.4c-1.5-0.2-2.8-1-2.8-1.8c0-2-3.3-3.6-7.3-3.6
		c-3.6,0-12.4-5.1-14.8-8.5c-0.8-1.1-1.2-2.7-0.9-3.5c0.2-0.6,0.7-1.7,1.2-1.3c1.9,1.2,1.4,1.3,1.5,2.1c0.6,0.5,2,1.4,0.8-1
		c-0.7-1.3-1-3.2-0.6-4.1c0.3-0.9,0.8-1.3,1.3-1c0.4,0.2,1.4,1,1.3,1.8c2.2,2.8,2.7,2.2,0.8-0.9c-1.3-2-0.6-5.3,1.1-5.3
		c0.5,0,1.8,1.8,1.8,1.8c-0.1,1,1.1,2.1,1.6,2.1c0.5,0,0-1.4-0.9-3.4c-1.4-2.8-1.5-3.9-0.5-4.9c1.3-1.3,2.8-0.9,4.4,1.7
		c0,0-0.3,0.6,0.3,1.7c0.9,4,8.6,8.4,13.1,6.3c1.5-0.7,5.6,1.2,7.9,2.8c2.5,1.8,4.6,2.3,10,2.3h6.8v3.5c0,2.6-1.2,4.9-4.4,8.9
		C66.5,139.4,63.6,141.5,60.1,139.2L60.1,139.2z M60.4,109.5c-2.2-0.8-5.1-1.2-6.3-0.9c-3.3,0.8-8.8-2.2-8.8-4.9
		c0-1.3-2.2-4.1-5.3-6.9c-5.5-4.9-8.7-10.8-9.8-17.9c-0.8-4.9,0.6-4.7,4.9-0.9c2.5,2,2,1.6,3.4,2.9c0.7,0.6,0.8,2.7,1,3.5
		c0.9,4.9,7.5,12.3,8.9,10.1c1.7-2.7,1-5.9-1.7-8c-1.6-1.3-2.2-4.7,1.3-8c0,0,2,1.5,3.2,0.8c2.8-1.7,4.4-5.4,6.2-7.8
		c4.6-6.2,16.1-24.6,26.2-42c4.8-8.2,10-16.7,11.7-18.8C99,5.9,108.7-0.9,110.3,0.1c1.4,0.9,0.5,11.3-1.5,17
		c-0.7,2-5.8,11.5-11.3,21.2C92,48,84.2,62.5,80.1,70.6c-6.6,13.1-8.4,15.2-9.8,18.1c-0.3,0.5-0.5,1.1-0.6,1.7
		c-0.1,1.1,2.1,1.9,2.1,1.9c0.7-0.6-2.9,6.5-5.9,5.4c-3.3-1.4-3.2-1-5.1,1.1c-1.4,1.5-1.8,2.6-1.1,3.3c1.5,1.5,11.8,2.1,14.3,0.8
		c2.6-1,3.1-0.7,4.2-0.5c0.8,0.2,0.9,0.2,2.9,1.2c2.6,1.1,4.3,2.6,4,3.2c-1,1.6-10.9,4.2-16,4.1C66.5,111,62.6,110.3,60.4,109.5
		L60.4,109.5z"/>
</g>
<sodipodi:namedview  bordercolor="#666666" borderopacity="1.0" id="base" inkscape:current-layer="layer1" inkscape:cx="317.4534" inkscape:cy="601.31592" inkscape:document-units="mm" inkscape:guide-bbox="true" inkscape:pageopacity="0.0" inkscape:pageshadow="2" inkscape:window-height="1018" inkscape:window-maximized="1" inkscape:window-width="1920" inkscape:window-x="-8" inkscape:window-y="-8" inkscape:zoom="2.8284271" pagecolor="#ffffff" showgrid="false" showguides="true">
	<sodipodi:guide  id="guide4530" inkscape:locked="false" orientation="1,0" position="99.531169,145.32113"></sodipodi:guide>
	<sodipodi:guide  id="guide4532" inkscape:locked="false" orientation="0,1" position="100.20937,142.81882"></sodipodi:guide>
</sodipodi:namedview>
</svg>
